<svg xmlns="http://www.w3.org/2000/svg" width="2560" height="1440"><path class="star fast" fill="#9bdaf3" d="M1562 1118h-3v-3h-2v3h-3v2h3v3h2v-3h3v-2z"/><path class="star medium" fill="#34b3e4" d="M1075 1019h-3v-3h-2v3h-3v2h3v3h2v-3h3v-2zM745 1062h-3v-3h-2v3h-3v2h3v3h2v-3h3v-2z"/><path class="star fast" fill="#caedff" d="M649 797h-3v-3h-2v3h-3v2h3v3h2v-3h3v-2zM1353 1050h-3v-3h-2v3h-3v2h3v3h2v-3h3v-2z"/><path class="star medium" fill="#caedff" d="M923 1143h-3v-3h-2v3h-3v2h3v3h2v-3h3v-2z"/><path class="star medium" fill="#9bdaf3" d="M659 1132h-3v-3h-2v3h-3v2h3v3h2v-3h3v-2z"/><path class="star fast" fill="#34b3e4" d="M1527 1067h-3v-3h-2v3h-3v2h3v3h2v-3h3v-2z"/><path class="star slow" fill="#34b3e4" d="M2179 696h-3v-3h-2v3h-3v2h3v3h2v-3h3v-2z"/><path class="star medium" fill="#caedff" d="M1108 1150h-3v-3h-2v3h-3v2h3v3h2v-3h3v-2z"/><path class="star fast" fill="#9bdaf3" d="M786 871h-3v-3h-2v3h-3v2h3v3h2v-3h3v-2zM542 716h-3v-3h-2v3h-3v2h3v3h2v-3h3v-2z"/><path class="star medium" fill="#9bdaf3" d="M656 584h-3v-3h-2v3h-3v2h3v3h2v-3h3v-2z"/><path class="star fast" fill="#9bdaf3" d="M546 923h-3v-3h-2v3h-3v2h3v3h2v-3h3v-2z"/><path class="star medium" fill="#caedff" d="M782 666h-3v-3h-2v3h-3v2h3v3h2v-3h3v-2z"/><path class="star slow" fill="#caedff" d="M975 487h-3v-3h-2v3h-3v2h3v3h2v-3h3v-2z"/><path class="star fast" fill="#34b3e4" d="M1858 1157h-3v-3h-2v3h-3v2h3v3h2v-3h3v-2z"/><path class="star medium" fill="#caedff" d="M1686 918h-3v-3h-2v3h-3v2h3v3h2v-3h3v-2z"/><path class="star slow" fill="#caedff" d="M1725 1061h-3v-3h-2v3h-3v2h3v3h2v-3h3v-2z"/><path class="star slow" fill="#9bdaf3" d="M1777 792h-3v-3h-2v3h-3v2h3v3h2v-3h3v-2z"/><path class="star medium" fill="#caedff" d="M1546 471h-3v-3h-2v3h-3v2h3v3h2v-3h3v-2z"/><path class="star slow" fill="#34b3e4" d="M444 518h-3v-3h-2v3h-3v2h3v3h2v-3h3v-2z"/><path class="star fast" fill="#9bdaf3" d="M1735 495h-3v-3h-2v3h-3v2h3v3h2v-3h3v-2z"/><path class="star fast" fill="#caedff" d="M1605 613h-3v-3h-2v3h-3v2h3v3h2v-3h3v-2zM1820 999h-3v-3h-2v3h-3v2h3v3h2v-3h3v-2z"/><path class="star medium" fill="#caedff" d="M2038 835h-3v-3h-2v3h-3v2h3v3h2v-3h3v-2zM1928 804h-3v-3h-2v3h-3v2h3v3h2v-3h3v-2z"/><path class="star fast" fill="#caedff" d="M2137 570h-3v-3h-2v3h-3v2h3v3h2v-3h3v-2z"/><path class="star slow" fill="#caedff" d="M1821 603h-3v-3h-2v3h-3v2h3v3h2v-3h3v-2z"/><path class="star fast" fill="#caedff" d="M1967 468h-3v-3h-2v3h-3v2h3v3h2v-3h3v-2z"/><circle class="planet" cx="772" cy="720" r="1" fill="#caedff"/><circle class="planet" cx="630" cy="683" r="1" fill="#caedff"/><circle class="planet" cx="758" cy="936" r="1" fill="#caedff"/><circle class="planet" cx="984" cy="1040" r="1" fill="#caedff"/><circle class="planet" cx="1442" cy="1047" r="1" fill="#34b3e4"/><circle class="planet" cx="1620" cy="1064" r="1" fill="#acb9c2"/><circle class="planet" cx="1911" cy="989" r="2" fill="#caedff"/><circle class="planet" cx="1897" cy="886" r="2" fill="#caedff"/><circle class="planet" cx="1673" cy="696" r="2" fill="#caedff"/><circle class="planet" cx="1907" cy="524" r="2" fill="#9bdaf3"/><circle class="planet" cx="2024" cy="996" r="2" fill="#9bdaf3"/><circle class="planet" cx="2172" cy="906" r="2" fill="#9bdaf3"/><circle class="planet" cx="881" cy="593" r="2" fill="#caedff"/><circle class="planet" cx="432" cy="640" r="2" fill="#caedff"/><circle class="planet" cx="720" cy="792" r="2" fill="#caedff"/><circle class="planet" cx="396" cy="748" r="2" fill="#caedff"/><circle class="planet" cx="894" cy="954" r="2" fill="#caedff"/><circle class="planet" cx="704" cy="950" r="2" fill="#caedff"/><circle class="planet" cx="901" cy="1212" r="2" fill="#34b3e4"/><circle class="planet" cx="1320" cy="1107" r="2" fill="#caedff"/><circle class="planet" cx="858" cy="750" r="2" fill="#34b3e4"/><circle class="planet" cx="1705" cy="1163" r="2" fill="#34b3e4"/><circle class="planet" cx="1946" cy="903" r="1" fill="#caedff"/><circle class="planet" cx="1950" cy="683" r="1" fill="#34b3e4"/><circle class="planet" cx="1716" cy="454" r="1" fill="#caedff"/><circle class="planet" cx="1651" cy="532" r="1" fill="#caedff"/><circle class="planet" cx="1106" cy="465" r="1" fill="#34b3e4"/><circle class="planet" cx="842" cy="532" r="1" fill="#34b3e4"/><circle class="planet" cx="531" cy="608" r="1" fill="#34b3e4"/><circle class="planet" cx="597" cy="512" r="1" fill="#34b3e4"/><circle class="planet" cx="756" cy="601" r="1" fill="#caedff"/><circle class="planet" cx="982" cy="558" r="1" fill="#caedff"/><circle class="planet" cx="623" cy="519" r="1" fill="#caedff"/><circle class="planet" cx="1495" cy="550" r="1" fill="#caedff"/><circle class="planet" cx="1277" cy="486" r="1" fill="#9bdaf3"/><circle class="planet" cx="1448" cy="454" r="1" fill="#caedff"/><circle class="planet" cx="1820" cy="857" r="1" fill="#caedff"/><circle class="planet" cx="2028" cy="616" r="1" fill="#caedff"/><circle class="planet" cx="1174" cy="1074" r="1" fill="#acb9c2"/><circle class="planet" cx="1217" cy="1148" r="1" fill="#acb9c2"/><circle class="planet" cx="1414" cy="1088" r="1" fill="#9bdaf3"/><circle class="planet" cx="1727" cy="976" r="1" fill="#9bdaf3"/><circle class="planet" cx="1693" cy="832" r="1" fill="#9bdaf3"/><circle class="planet" cx="1836" cy="761" r="1" fill="#caedff"/><circle class="planet" cx="1838" cy="665" r="1" fill="#9bdaf3"/><circle class="planet" cx="2113" cy="772" r="1" fill="#9bdaf3"/><circle class="planet" cx="2140" cy="497" r="1" fill="#9bdaf3"/><circle class="planet" cx="1880" cy="465" r="1" fill="#caedff"/><path class="star fast" fill="#9bdaf3" d="M2230 151h-3v-3h-2v3h-3v2h3v3h2v-3h3v-2z"/><path class="star medium" fill="#caedff" d="M2100 269h-3v-3h-2v3h-3v2h3v3h2v-3h3v-2z"/><path class="star slow" fill="#caedff" d="M2316 259h-3v-3h-2v3h-3v2h3v3h2v-3h3v-2z"/><path class="star fast" fill="#caedff" d="M2462 124h-3v-3h-2v3h-3v2h3v3h2v-3h3v-2z"/><circle class="planet" cx="2168" cy="352" r="2" fill="#caedff"/><circle class="planet" cx="2402" cy="180" r="2" fill="#9bdaf3"/><circle class="planet" cx="2445" cy="339" r="1" fill="#34b3e4"/><circle class="planet" cx="2211" cy="110" r="1" fill="#caedff"/><circle class="planet" cx="2146" cy="188" r="1" fill="#caedff"/><circle class="planet" cx="2523" cy="272" r="1" fill="#caedff"/><circle class="planet" cx="2333" cy="321" r="1" fill="#9bdaf3"/><circle class="planet" cx="2375" cy="121" r="1" fill="#caedff"/><circle class="planet" cx="1901" cy="1133" r="1" fill="#34b3e4"/><circle class="planet" cx="1626" cy="1172" r="1" fill="#34b3e4"/><circle class="planet" cx="1871" cy="1077" r="1" fill="#caedff"/><circle class="planet" cx="862" cy="1077" r="1" fill="#caedff"/><circle class="planet" cx="1059" cy="1185" r="1" fill="#caedff"/><circle class="planet" cx="644" cy="908" r="1" fill="#caedff"/><circle class="planet" cx="416" cy="833" r="1" fill="#caedff"/><path class="star medium" fill="#caedff" d="M1756 281h-3v-3h-2v3h-3v2h3v3h2v-3h3v-2z"/><path class="star fast" fill="#9bdaf3" d="M1893 355h-3v-3h-2v3h-3v2h3v3h2v-3h3v-2z"/><path class="star medium" fill="#caedff" d="M362 195h-3v-3h-2v3h-3v2h3v3h2v-3h3v-2z"/><path class="star slow" fill="#caedff" d="M680 180h-3v-3h-2v3h-3v2h3v3h2v-3h3v-2z"/><path class="star fast" fill="#34b3e4" d="M454 282h-3v-3h-2v3h-3v2h3v3h2v-3h3v-2z"/><path class="star slow" fill="#9bdaf3" d="M869 204h-3v-3h-2v3h-3v2h3v3h2v-3h3v-2z"/><path class="star medium" fill="#caedff" d="M739 322h-3v-3h-2v3h-3v2h3v3h2v-3h3v-2zM1271 279h-3v-3h-2v3h-3v2h3v3h2v-3h3v-2zM955 312h-3v-3h-2v3h-3v2h3v3h2v-3h3v-2zM1101 177h-3v-3h-2v3h-3v2h3v3h2v-3h3v-2z"/><circle class="planet" cx="1041" cy="233" r="2" fill="#9bdaf3"/><circle class="planet" cx="485" cy="169" r="2" fill="#9bdaf3"/><circle class="planet" cx="850" cy="163" r="1" fill="#caedff"/><circle class="planet" cx="785" cy="241" r="1" fill="#caedff"/><circle class="planet" cx="629" cy="259" r="1" fill="#caedff"/><circle class="planet" cx="312" cy="252" r="1" fill="#9bdaf3"/><circle class="planet" cx="582" cy="163" r="1" fill="#caedff"/><path class="star medium" fill="#caedff" d="M102 108h-3v-3h-2v3h-3v2h3v3h2v-3h3v-2z"/><path class="star slow" fill="#caedff" d="M420 93h-3v-3h-2v3h-3v2h3v3h2v-3h3v-2z"/><circle class="planet" cx="225" cy="82" r="2" fill="#9bdaf3"/><circle class="planet" cx="322" cy="76" r="1" fill="#caedff"/><circle class="planet" cx="1274" cy="206" r="1" fill="#9bdaf3"/><circle class="planet" cx="1014" cy="174" r="1" fill="#caedff"/><path class="star slow" fill="#9bdaf3" d="M1027 64h-3v-3h-2v3h-3v2h3v3h2v-3h3v-2z"/><path class="star fast" fill="#9bdaf3" d="M1649 200h-3v-3h-2v3h-3v2h3v3h2v-3h3v-2z"/><path class="star fast" fill="#caedff" d="M1889 150h-3v-3h-2v3h-3v2h3v3h2v-3h3v-2z"/><circle class="planet" cx="1879" cy="204" r="1" fill="#caedff"/><circle class="planet" cx="1737" cy="167" r="1" fill="#caedff"/><circle class="planet" cx="1539" cy="124" r="2" fill="#caedff"/><circle class="planet" cx="1827" cy="276" r="2" fill="#caedff"/><circle class="planet" cx="1503" cy="232" r="2" fill="#caedff"/><circle class="planet" cx="1965" cy="234" r="2" fill="#34b3e4"/><path class="star fast" fill="#34b3e4" d="M359 802h-3v-3h-2v3h-3v2h3v3h2v-3h3v-2z"/><path class="star medium" fill="#caedff" d="M317 676h-3v-3h-2v3h-3v2h3v3h2v-3h3v-2zM147 574h-3v-3h-2v3h-3v2h3v3h2v-3h3v-2z"/><circle class="planet" cx="87" cy="630" r="2" fill="#9bdaf3"/><circle class="planet" cx="130" cy="789" r="1" fill="#34b3e4"/><circle class="planet" cx="208" cy="722" r="1" fill="#caedff"/><circle class="planet" cx="18" cy="771" r="1" fill="#9bdaf3"/><circle class="planet" cx="320" cy="603" r="1" fill="#9bdaf3"/><circle class="planet" cx="60" cy="571" r="1" fill="#caedff"/><path class="star slow" fill="#caedff" d="M280 375h-3v-3h-2v3h-3v2h3v3h2v-3h3v-2z"/><circle class="planet" cx="348" cy="458" r="2" fill="#caedff"/><circle class="planet" cx="326" cy="294" r="1" fill="#caedff"/><path class="star slow" fill="#9bdaf3" d="M73 461h-3v-3h-2v3h-3v2h3v3h2v-3h3v-2z"/><path class="star fast" fill="#caedff" d="M69 256h-3v-3h-2v3h-3v2h3v3h2v-3h3v-2z"/><circle class="planet" cx="59" cy="310" r="1" fill="#caedff"/><circle class="planet" cx="145" cy="340" r="2" fill="#34b3e4"/><path class="star slow" fill="#9bdaf3" d="M2278 837h-3v-3h-2v3h-3v2h3v3h2v-3h3v-2z"/><path class="star fast" fill="#caedff" d="M2510 810h-3v-3h-2v3h-3v2h3v3h2v-3h3v-2z"/><circle class="planet" cx="2450" cy="866" r="2" fill="#9bdaf3"/><circle class="planet" cx="2259" cy="796" r="1" fill="#caedff"/><circle class="planet" cx="2423" cy="807" r="1" fill="#caedff"/><path class="star medium" fill="#caedff" d="M2299 623h-3v-3h-2v3h-3v2h3v3h2v-3h3v-2z"/><path class="star fast" fill="#9bdaf3" d="M2436 697h-3v-3h-2v3h-3v2h3v3h2v-3h3v-2z"/><circle class="planet" cx="2422" cy="546" r="1" fill="#caedff"/><circle class="planet" cx="2370" cy="618" r="2" fill="#caedff"/><circle class="planet" cx="2508" cy="576" r="2" fill="#34b3e4"/><circle class="planet" cx="1638" cy="92" r="1" fill="#34b3e4"/><circle class="planet" cx="1523" cy="317" r="1" fill="#caedff"/><circle class="planet" cx="535" cy="1028" r="1" fill="#caedff"/><circle class="planet" cx="670" cy="1040" r="1" fill="#9bdaf3"/><circle class="planet" cx="818" cy="1179" r="1" fill="#9bdaf3"/><circle class="planet" cx="968" cy="888" r="1" fill="#caedff"/><g style="isolation:isolate"><path fill="#e6f7ff" d="M2560 941.4l-80 49.6-43-30-227 160 12 46 338 35.74V941.4z"/><path d="M244 989C204 960 85 823 69 801L1 854.21v367.21L210 1304l189-144s-115-142-155-171z" style="mix-blend-mode:multiply" fill="#e6f7ff"/><path d="M69 801L1 854.21V986l20-32 50 103 44-92 40 53 68.18-46.8C172.85 924.07 82.77 819.94 69 801z" style="mix-blend-mode:screen" fill="#e6f7ff" opacity=".45"/><path d="M320 1294v-122s198-33.67 354 40 464.22 59 518 52 301.34-74.39 539-60c247.67 15 323.67 33.67 509-12.33V1294s-1918.67 1-1920 0z" style="mix-blend-mode:multiply" fill="#e6f7ff"/><path fill="#caedff" d="M320 1294h1920v146H320z"/><path fill="#9bdaf3" d="M794.5 1129L732 1401.73h125L794.5 1129zM1886.5 1133.27L1824 1406h125l-62.5-272.73zM2163.23 942.27L2056.96 1406h212.54l-106.27-463.73zM2467.77 1002.27L2357 1406h221.54l-110.77-403.73z"/><path fill="#9bdaf3" d="M2278.77 1002.27L2168 1406h221.54l-110.77-403.73zM493.21 1027.27L406.42 1406H580l-86.79-378.73zM294.21 949.27L207.42 1406H381l-86.79-456.73z"/><path fill="#9bdaf3" d="M142.79 1024L56 1406h173.58l-86.79-382z"/><path fill="#9bdaf3" d="M81.79 951L-5 1406h173.58L81.79 951zM1712.5 1185l-40.5 176.73h81L1712.5 1185z"/><path fill="#caedff" d="M1605 1206l-22 96h44l-22-96z"/><path fill="#caedff" d="M1574 1227l-22 96h44l-22-96zM1449 1250l-22 96h44l-22-96zM1014 1207l-22 96h44l-22-96z"/><path fill="#caedff" d="M989 1235l-22 96h44l-22-96zM918 1223l-22 96h44l-22-96z"/><path fill="#9bdaf3" d="M660.5 1184l-33.62 146.73h67.25L660.5 1184z"/><path fill="#65c3e8" d="M1789.21 974l-106.79 466H1896l-106.79-466z"/><path fill="#65c3e8" d="M1969.38 906L1847 1440h244.75l-122.37-534z"/><path fill="#65c3e8" d="M2087.44 833l-139.11 607H2226.54l-139.1-607z"/><path fill="#65c3e8" d="M2375.6 847L2207 1440H2544.21L2375.6 847z"/><path fill="#65c3e8" d="M2237.58 873l-129.94 567h259.87l-129.93-567zM2538.94 873L2409 1440h259.88l-129.94-567zM584.79 995.82L483 1440h203.58L584.79 995.82z"/><path fill="#65c3e8" d="M444.42 893.82L319.25 1440H569.58L444.42 893.82z"/><path fill="#65c3e8" d="M344.17 909.54L222.61 1440h243.12L344.17 909.54z"/><path fill="#65c3e8" d="M222.44 822.54L88.88 1440H356L222.44 822.54z"/><path fill="#65c3e8" d="M44.56 898L-89 1440h267.13L44.56 898zM718.5 1066.91L633 1440h171l-85.5-373.09z"/><path fill="#34b3e4" d="M1362 1311h38v6h-38z"/><path d="M1399 1312v4h-36v-4h36m2-2h-40v8h40v-8z" fill="#005e93"/><path fill="#9bdaf3" d="M1365 1305h38v6h-38z"/><path d="M1402 1306v4h-36v-4h36m2-2h-40v8h40v-8z" fill="#005e93"/><path d="M1173 1323v-26.29l-6.79-10.66 2-2.65 4.8 3.6v-9a1 1 0 011-1h28a1 1 0 011 1v45h-30z" fill="#9bdaf3"/><path d="M1202 1278v44h-28v-25.58l-.31-.49-6.26-9.83 1-1.29 2.4 1.8 3.2 2.4v-11h28m0-2h-28a2 2 0 00-2 2v7l-4-3-3 4 7 11v27h32v-46a2 2 0 00-2-2z" fill="#005e93"/><path fill="#005e93" d="M1178 1301h2v21h-2zM1184 1318h2v4h-2zM1184 1282h2v4h-2zM1184 1290h2v19h-2zM1190 1314h2v8h-2zM1190 1280h2v13h-2zM1190 1301h2v9h-2zM1178 1290h2v8h-2zM1178 1278h2v6h-2zM1196 1278h2v12h-2zM1196 1292h2v9h-2zM1196 1304h2v15h-2z"/><path fill="#9bdaf3" d="M1356 1316h50v2h-50z"/><path d="M1162 1323a1 1 0 01-1-1v-26a1 1 0 011-1h18v28h-18z" fill="#e1e9ee"/><path d="M1179 1296v26h-17v-26h17m2-2h-19a2 2 0 00-2 2v26a2 2 0 002 2h19v-30z" fill="#005e93"/><path fill="#fff" d="M1164 1298h15v22h-15z"/><path d="M1180 1323v-28h18a1 1 0 011 1v26a1 1 0 01-1 1h-18z" fill="#e1e9ee"/><path d="M1198 1296v26h-17v-26h17m0-2h-19v30h19a2 2 0 002-2v-26a2 2 0 00-2-2z" fill="#005e93"/><path fill="#fff" d="M1196 1320h-15v-22h15z"/><path fill="#e1e9ee" d="M1166 1304h11v2h-11zM1166 1308h11v2h-11zM1166 1312h6v2h-6z"/><path fill="#65c3e8" d="M1177 1316l-2-2-2 2v-18h4v18z"/><path fill="#e1e9ee" d="M1166 1300h5v2h-5zM1183 1304h11v2h-11zM1183 1308h11v2h-11zM1183 1312h11v2h-11zM1183 1316h8v2h-8zM1183 1300h5v2h-5z"/><path fill="#9bdaf3" d="M1156 1322h52v2h-52z"/><path fill="#65c3e8" d="M1377 1306h14v4h-14z"/><path fill="#0084bf" d="M1367 1312h14v4h-14z"/><g><path fill="#e1e9ee" d="M995.25 1359l1.62-7.3 10.25-4.66 9.12 1.83 1.91 5.74 5.85 4.39h-28.75z"/><path d="M1007.24 1348.09l8.23 1.65 1.63 4.9.2.59.5.38 3.2 2.4h-24.51l1.24-5.59 9.5-4.32m-.23-2.1l-11 5-2 9h33l-8-6-2-6-10-2z" fill="#acb9c2"/></g><g><path fill="#e1e9ee" d="M966.28 1352l.62-2.49 3.46-3.46 7.02.88 2.9 5.07h-14z"/><path d="M970.72 1347.11l6 .75 1.79 3.14h-11l.24-1 2.92-2.92M970 1345l-4 4-1 4h17l-4-7-8-1z" fill="#acb9c2"/></g><path fill="#9bdaf3" d="M991 1358h38v2h-38z"/><g><path fill="#e1e9ee" d="M1522.26 1357l2.63-11.43 8.58-6.67 15.49-4.84 17.32 6.73 8.1 16.21h-52.12z"/><path d="M1548.93 1335.12l16.63 6.47 7.21 14.42h-49.25l2.27-9.86 8.15-6.34 15-4.68m.06-2.13l-16 5-9 7-3 13h55l-9-18-18-7z" fill="#acb9c2"/></g><path fill="#9bdaf3" d="M1516 1356h66v2h-66zM963 1351h20v2h-20z"/></g><path d="M1243.73 1313.82a1 1 0 01-.5-.13l-3.46-2a1 1 0 01-.37-1.36l37.5-65 5.2 3-37.5 65a1 1 0 01-.87.5z" fill="#c7d1d8"/><path d="M1277.27 1246.73l3.46 2-37 64.09-3.46-2 37-64.09m-.73-2.73l-38 65.82a2 2 0 00.73 2.73l3.46 2a2 2 0 002.73-.73l38-65.82-6.93-4z" fill="#005e93"/><path d="M1316.27 1313.82a1 1 0 01-.87-.5l-37.5-65 5.2-3 37.5 65a1 1 0 01-.37 1.37l-3.46 2a1 1 0 01-.5.13z" fill="#c7d1d8"/><path d="M1282.73 1246.73l37 64.09-3.46 2-37-64.09 3.46-2m.73-2.73l-6.93 4 38 65.82a2 2 0 002.73.73l3.46-2a2 2 0 00.73-2.73l-38-65.82z" fill="#005e93"/><path d="M1278 1323a1 1 0 01-1-1v-75h6v75a1 1 0 01-1 1h-4z" fill="#e1e9ee"/><path d="M1282 1248v74h-4v-74h4m2-2h-8v76a2 2 0 002 2h4a2 2 0 002-2v-76z" fill="#005e93"/><rect x="1269" y="1237" width="22" height="10" rx="1" ry="1" fill="#65c3e8"/><path d="M1290 1238v8h-20v-8h20m0-2h-20a2 2 0 00-2 2v8a2 2 0 002 2h20a2 2 0 002-2v-8a2 2 0 00-2-2z" fill="#005e93"/><path d="M1272 1253a1 1 0 01-1-1v-5h18v5a1 1 0 01-1 1h-16z" fill="#65c3e8"/><path d="M1288 1248v4h-16v-4h16m2-2h-20v6a2 2 0 002 2h16a2 2 0 002-2v-6z" fill="#005e93"/><path fill="#c7d1d8" d="M1278 1229h4v8h-4z"/><path d="M1281 1230v6h-2v-6h2m2-2h-6v10h6v-10z" fill="#005e93"/><path d="M1277.68 1229a1.68 1.68 0 01-1.68-1.68V1213h8v14.32a1.68 1.68 0 01-1.68 1.68h-4.63z" fill="#e1e9ee"/><path d="M1283 1214v13.32a.68.68 0 01-.68.68h-4.63a.68.68 0 01-.68-.68V1214h6m2-2h-10v15.32a2.68 2.68 0 002.68 2.68h4.63a2.68 2.68 0 002.68-2.68V1212zM1279 1322h2v6h-2zM1241.128488 1311.32303503l1.7320508 1-3 5.19615242-1.7320508-1zM1317.13449489 1312.32303503l1.7320508-1 3 5.19615242-1.7320508 1z" fill="#005e93"/><path fill="#9bdaf3" d="M1273 1328h14v2h-14zM1313 1316h14v2h-14zM1233 1316h14v2h-14z"/><g class="scope"><path d="M1267.68 1229.93a1 1 0 01-.87-.5l-8-13.86a1 1 0 01.37-1.37l25.11-14.5 9 15.59-25.11 14.5a1 1 0 01-.5.13z" fill="#fff"/><path d="M1283.93 1201.07l8 13.86-24.25 14-8-13.86 24.25-14m.73-2.73l-26 15a2 2 0 00-.73 2.73l8 13.86a2 2 0 002.73.73l26-15-10-17.32z" fill="#005e93"/></g><g class="scope"><path d="M1295.16 1217.53a1 1 0 01-.87-.5l-11-19.05a1 1 0 01.37-1.37l28.58-16.5 12 20.79-28.58 16.5a1 1 0 01-.5.13z" fill="#fff"/><path d="M1311.87 1181.47l11 19.05-27.71 16-11-19.05 27.71-16m.73-2.73l-29.44 17a2 2 0 00-.73 2.73l11 19.05a2 2 0 002.73.73l29.44-17-13-22.52z" fill="#005e93"/></g><g class="scope"><path d="M1326.11 1203.12a1 1 0 01-.87-.5l-14-24.25a1 1 0 01.37-1.37l3.46-2a1 1 0 01.5-.13 1 1 0 01.87.5l14 24.25a1 1 0 01-.37 1.37l-3.46 2a1 1 0 01-.5.13z" fill="#65c3e8"/><path d="M1315.57 1175.88l14 24.25-3.46 2-14-24.25 3.46-2m0-2a2 2 0 00-1 .27l-3.46 2a2 2 0 00-.73 2.73l14 24.25a2 2 0 002.73.73l3.46-2a2 2 0 00.73-2.73l-14-24.25a2 2 0 00-1.73-1z" fill="#005e93"/></g><g class="scope"><path d="M1248.86 1237.33a1 1 0 01-.87-.5l-5-8.66a1 1 0 01.37-1.37l16.45-9.5 6 10.39-16.45 9.5a1 1 0 01-.5.13z" fill="#fff"/><path d="M1259.45 1218.67l5 8.66-15.59 9-5-8.66 15.59-9m.73-2.73l-17.32 10a2 2 0 00-.73 2.73l5 8.66a2 2 0 002.73.73l17.32-10-7-12.12z" fill="#005e93"/></g><g class="scope"><path fill="#f3f6f8" d="M1237.56543065 1234.76131016l6.92820323-4 2 3.46410162-6.92820323 4z"/><path d="M1244.13 1232.13l1 1.73-5.2 3-1-1.73 5.2-3m.73-2.73l-8.66 5 3 5.2 8.66-5-3-5.2z" fill="#005e93"/></g><path class="scope" fill="#005e93" d="M1237.42561362 1232.5303225l4 6.92820323-1.7320508 1-4-6.92820323z"/><path class="scope" fill="#caedff" d="M1282.1906308 1202.07349724l1.7320508-1 8 13.85640646-1.7320508 1zM1257.7112908 1219.67195451l1.7320508-1 5 8.66025404-1.7320508 1zM1310.14507893 1182.46798917l1.73205081-1 11 19.05255888-1.7320508 1z"/></svg>