<svg xmlns="http://www.w3.org/2000/svg" width="2757.88" height="1379" viewBox="0 0 2757.88 1379"><g transform="translate(89 -61)"><path d="M1562,1118h-3v-3h-2v3h-3v2h3v3h2v-3h3Z" fill="#9bdaf3"/><path d="M1075,1019h-3v-3h-2v3h-3v2h3v3h2v-3h3Zm-330,43h-3v-3h-2v3h-3v2h3v3h2v-3h3Z" fill="#34b3e4"/><path d="M649,797h-3v-3h-2v3h-3v2h3v3h2v-3h3Zm704,253h-3v-3h-2v3h-3v2h3v3h2v-3h3Z" fill="#caedff"/><path d="M923,1143h-3v-3h-2v3h-3v2h3v3h2v-3h3Z" fill="#caedff"/><path d="M659,1132h-3v-3h-2v3h-3v2h3v3h2v-3h3Z" fill="#9bdaf3"/><path d="M1527,1067h-3v-3h-2v3h-3v2h3v3h2v-3h3Z" fill="#34b3e4"/><path d="M2179,696h-3v-3h-2v3h-3v2h3v3h2v-3h3Z" fill="#34b3e4"/><path d="M1108,1150h-3v-3h-2v3h-3v2h3v3h2v-3h3Z" fill="#caedff"/><path d="M786,871h-3v-3h-2v3h-3v2h3v3h2v-3h3ZM542,716h-3v-3h-2v3h-3v2h3v3h2v-3h3Z" fill="#9bdaf3"/><path d="M656,584h-3v-3h-2v3h-3v2h3v3h2v-3h3Z" fill="#9bdaf3"/><path d="M546,923h-3v-3h-2v3h-3v2h3v3h2v-3h3Z" fill="#9bdaf3"/><path d="M782,666h-3v-3h-2v3h-3v2h3v3h2v-3h3Z" fill="#caedff"/><path d="M975,487h-3v-3h-2v3h-3v2h3v3h2v-3h3Z" fill="#caedff"/><path d="M1858,1157h-3v-3h-2v3h-3v2h3v3h2v-3h3Z" fill="#34b3e4"/><path d="M1686,918h-3v-3h-2v3h-3v2h3v3h2v-3h3Z" fill="#caedff"/><path d="M1725,1061h-3v-3h-2v3h-3v2h3v3h2v-3h3Z" fill="#caedff"/><path d="M1777,792h-3v-3h-2v3h-3v2h3v3h2v-3h3Z" fill="#9bdaf3"/><path d="M1546,471h-3v-3h-2v3h-3v2h3v3h2v-3h3Z" fill="#caedff"/><path d="M444,518h-3v-3h-2v3h-3v2h3v3h2v-3h3Z" fill="#34b3e4"/><path d="M1735,495h-3v-3h-2v3h-3v2h3v3h2v-3h3Z" fill="#9bdaf3"/><path d="M1605,613h-3v-3h-2v3h-3v2h3v3h2v-3h3Zm215,386h-3v-3h-2v3h-3v2h3v3h2v-3h3Z" fill="#caedff"/><path d="M2038,835h-3v-3h-2v3h-3v2h3v3h2v-3h3Zm-110-31h-3v-3h-2v3h-3v2h3v3h2v-3h3Z" fill="#caedff"/><path d="M2137,570h-3v-3h-2v3h-3v2h3v3h2v-3h3Z" fill="#caedff"/><path d="M1821,603h-3v-3h-2v3h-3v2h3v3h2v-3h3Z" fill="#caedff"/><path d="M1967,468h-3v-3h-2v3h-3v2h3v3h2v-3h3Z" fill="#caedff"/><circle cx="1" cy="1" r="1" transform="translate(771 719)" fill="#caedff"/><circle cx="1" cy="1" r="1" transform="translate(629 682)" fill="#caedff"/><circle cx="1" cy="1" r="1" transform="translate(757 935)" fill="#caedff"/><circle cx="1" cy="1" r="1" transform="translate(983 1039)" fill="#caedff"/><circle cx="1" cy="1" r="1" transform="translate(1441 1046)" fill="#34b3e4"/><circle cx="1" cy="1" r="1" transform="translate(1619 1063)" fill="#acb9c2"/><circle cx="2" cy="2" r="2" transform="translate(1909 987)" fill="#caedff"/><circle cx="2" cy="2" r="2" transform="translate(1895 884)" fill="#caedff"/><circle cx="2" cy="2" r="2" transform="translate(1671 694)" fill="#caedff"/><circle cx="2" cy="2" r="2" transform="translate(1905 522)" fill="#9bdaf3"/><circle cx="2" cy="2" r="2" transform="translate(2022 994)" fill="#9bdaf3"/><circle cx="2" cy="2" r="2" transform="translate(2170 904)" fill="#9bdaf3"/><circle cx="2" cy="2" r="2" transform="translate(879 591)" fill="#caedff"/><circle cx="2" cy="2" r="2" transform="translate(430 638)" fill="#caedff"/><circle cx="2" cy="2" r="2" transform="translate(718 790)" fill="#caedff"/><circle cx="2" cy="2" r="2" transform="translate(394 746)" fill="#caedff"/><circle cx="2" cy="2" r="2" transform="translate(892 952)" fill="#caedff"/><circle cx="2" cy="2" r="2" transform="translate(702 948)" fill="#caedff"/><circle cx="2" cy="2" r="2" transform="translate(899 1210)" fill="#34b3e4"/><circle cx="2" cy="2" r="2" transform="translate(1318 1105)" fill="#caedff"/><circle cx="2" cy="2" r="2" transform="translate(856 748)" fill="#34b3e4"/><circle cx="2" cy="2" r="2" transform="translate(1703 1161)" fill="#34b3e4"/><circle cx="1" cy="1" r="1" transform="translate(1945 902)" fill="#caedff"/><circle cx="1" cy="1" r="1" transform="translate(1949 682)" fill="#34b3e4"/><circle cx="1" cy="1" r="1" transform="translate(1715 453)" fill="#caedff"/><circle cx="1" cy="1" r="1" transform="translate(1650 531)" fill="#caedff"/><circle cx="1" cy="1" r="1" transform="translate(1105 464)" fill="#34b3e4"/><circle cx="1" cy="1" r="1" transform="translate(841 531)" fill="#34b3e4"/><circle cx="1" cy="1" r="1" transform="translate(530 607)" fill="#34b3e4"/><circle cx="1" cy="1" r="1" transform="translate(596 511)" fill="#34b3e4"/><circle cx="1" cy="1" r="1" transform="translate(755 600)" fill="#caedff"/><circle cx="1" cy="1" r="1" transform="translate(981 557)" fill="#caedff"/><circle cx="1" cy="1" r="1" transform="translate(622 518)" fill="#caedff"/><circle cx="1" cy="1" r="1" transform="translate(1494 549)" fill="#caedff"/><circle cx="1" cy="1" r="1" transform="translate(1276 485)" fill="#9bdaf3"/><circle cx="1" cy="1" r="1" transform="translate(1447 453)" fill="#caedff"/><circle cx="1" cy="1" r="1" transform="translate(1819 856)" fill="#caedff"/><circle cx="1" cy="1" r="1" transform="translate(2027 615)" fill="#caedff"/><circle cx="1" cy="1" r="1" transform="translate(1173 1073)" fill="#acb9c2"/><circle cx="1" cy="1" r="1" transform="translate(1216 1147)" fill="#acb9c2"/><circle cx="1" cy="1" r="1" transform="translate(1413 1087)" fill="#9bdaf3"/><circle cx="1" cy="1" r="1" transform="translate(1726 975)" fill="#9bdaf3"/><circle cx="1" cy="1" r="1" transform="translate(1692 831)" fill="#9bdaf3"/><circle cx="1" cy="1" r="1" transform="translate(1835 760)" fill="#caedff"/><circle cx="1" cy="1" r="1" transform="translate(1837 664)" fill="#9bdaf3"/><circle cx="1" cy="1" r="1" transform="translate(2112 771)" fill="#9bdaf3"/><circle cx="1" cy="1" r="1" transform="translate(2139 496)" fill="#9bdaf3"/><circle cx="1" cy="1" r="1" transform="translate(1879 464)" fill="#caedff"/><path d="M2230,151h-3v-3h-2v3h-3v2h3v3h2v-3h3Z" fill="#9bdaf3"/><path d="M2100,269h-3v-3h-2v3h-3v2h3v3h2v-3h3Z" fill="#caedff"/><path d="M2316,259h-3v-3h-2v3h-3v2h3v3h2v-3h3Z" fill="#caedff"/><path d="M2462,124h-3v-3h-2v3h-3v2h3v3h2v-3h3Z" fill="#caedff"/><circle cx="2" cy="2" r="2" transform="translate(2166 350)" fill="#caedff"/><circle cx="2" cy="2" r="2" transform="translate(2400 178)" fill="#9bdaf3"/><circle cx="1" cy="1" r="1" transform="translate(2444 338)" fill="#34b3e4"/><circle cx="1" cy="1" r="1" transform="translate(2210 109)" fill="#caedff"/><circle cx="1" cy="1" r="1" transform="translate(2145 187)" fill="#caedff"/><circle cx="1" cy="1" r="1" transform="translate(2522 271)" fill="#caedff"/><circle cx="1" cy="1" r="1" transform="translate(2332 320)" fill="#9bdaf3"/><circle cx="1" cy="1" r="1" transform="translate(2374 120)" fill="#caedff"/><circle cx="1" cy="1" r="1" transform="translate(1900 1132)" fill="#34b3e4"/><circle cx="1" cy="1" r="1" transform="translate(1625 1171)" fill="#34b3e4"/><circle cx="1" cy="1" r="1" transform="translate(1870 1076)" fill="#caedff"/><circle cx="1" cy="1" r="1" transform="translate(861 1076)" fill="#caedff"/><circle cx="1" cy="1" r="1" transform="translate(1058 1184)" fill="#caedff"/><circle cx="1" cy="1" r="1" transform="translate(643 907)" fill="#caedff"/><circle cx="1" cy="1" r="1" transform="translate(415 832)" fill="#caedff"/><path d="M1756,281h-3v-3h-2v3h-3v2h3v3h2v-3h3Z" fill="#caedff"/><path d="M1893,355h-3v-3h-2v3h-3v2h3v3h2v-3h3Z" fill="#9bdaf3"/><path d="M362,195h-3v-3h-2v3h-3v2h3v3h2v-3h3Z" fill="#caedff"/><path d="M680,180h-3v-3h-2v3h-3v2h3v3h2v-3h3Z" fill="#caedff"/><path d="M454,282h-3v-3h-2v3h-3v2h3v3h2v-3h3Z" fill="#34b3e4"/><path d="M869,204h-3v-3h-2v3h-3v2h3v3h2v-3h3Z" fill="#9bdaf3"/><path d="M739,322h-3v-3h-2v3h-3v2h3v3h2v-3h3Zm532-43h-3v-3h-2v3h-3v2h3v3h2v-3h3ZM955,312h-3v-3h-2v3h-3v2h3v3h2v-3h3Zm146-135h-3v-3h-2v3h-3v2h3v3h2v-3h3Z" fill="#caedff"/><circle cx="2" cy="2" r="2" transform="translate(1039 231)" fill="#9bdaf3"/><circle cx="2" cy="2" r="2" transform="translate(483 167)" fill="#9bdaf3"/><circle cx="1" cy="1" r="1" transform="translate(849 162)" fill="#caedff"/><circle cx="1" cy="1" r="1" transform="translate(784 240)" fill="#caedff"/><circle cx="1" cy="1" r="1" transform="translate(628 258)" fill="#caedff"/><circle cx="1" cy="1" r="1" transform="translate(311 251)" fill="#9bdaf3"/><circle cx="1" cy="1" r="1" transform="translate(581 162)" fill="#caedff"/><path d="M102,108H99v-3H97v3H94v2h3v3h2v-3h3Z" fill="#caedff"/><path d="M420,93h-3V90h-2v3h-3v2h3v3h2V95h3Z" fill="#caedff"/><circle cx="2" cy="2" r="2" transform="translate(223 80)" fill="#9bdaf3"/><circle cx="1" cy="1" r="1" transform="translate(321 75)" fill="#caedff"/><circle cx="1" cy="1" r="1" transform="translate(1273 205)" fill="#9bdaf3"/><circle cx="1" cy="1" r="1" transform="translate(1013 173)" fill="#caedff"/><path d="M1027,64h-3V61h-2v3h-3v2h3v3h2V66h3Z" fill="#9bdaf3"/><path d="M1649,200h-3v-3h-2v3h-3v2h3v3h2v-3h3Z" fill="#9bdaf3"/><path d="M1889,150h-3v-3h-2v3h-3v2h3v3h2v-3h3Z" fill="#caedff"/><circle cx="1" cy="1" r="1" transform="translate(1878 203)" fill="#caedff"/><circle cx="1" cy="1" r="1" transform="translate(1736 166)" fill="#caedff"/><circle cx="2" cy="2" r="2" transform="translate(1537 122)" fill="#caedff"/><circle cx="2" cy="2" r="2" transform="translate(1825 274)" fill="#caedff"/><circle cx="2" cy="2" r="2" transform="translate(1501 230)" fill="#caedff"/><circle cx="2" cy="2" r="2" transform="translate(1963 232)" fill="#34b3e4"/><path d="M359,802h-3v-3h-2v3h-3v2h3v3h2v-3h3Z" fill="#34b3e4"/><path d="M317,676h-3v-3h-2v3h-3v2h3v3h2v-3h3ZM147,574h-3v-3h-2v3h-3v2h3v3h2v-3h3Z" fill="#caedff"/><circle cx="2" cy="2" r="2" transform="translate(85 628)" fill="#9bdaf3"/><circle cx="1" cy="1" r="1" transform="translate(129 788)" fill="#34b3e4"/><circle cx="1" cy="1" r="1" transform="translate(207 721)" fill="#caedff"/><circle cx="1" cy="1" r="1" transform="translate(17 770)" fill="#9bdaf3"/><circle cx="1" cy="1" r="1" transform="translate(319 602)" fill="#9bdaf3"/><circle cx="1" cy="1" r="1" transform="translate(59 570)" fill="#caedff"/><path d="M280,375h-3v-3h-2v3h-3v2h3v3h2v-3h3Z" fill="#caedff"/><circle cx="2" cy="2" r="2" transform="translate(346 456)" fill="#caedff"/><circle cx="1" cy="1" r="1" transform="translate(325 293)" fill="#caedff"/><path d="M73,461H70v-3H68v3H65v2h3v3h2v-3h3Z" fill="#9bdaf3"/><path d="M69,256H66v-3H64v3H61v2h3v3h2v-3h3Z" fill="#caedff"/><circle cx="1" cy="1" r="1" transform="translate(58 309)" fill="#caedff"/><circle cx="2" cy="2" r="2" transform="translate(143 338)" fill="#34b3e4"/><path d="M2278,837h-3v-3h-2v3h-3v2h3v3h2v-3h3Z" fill="#9bdaf3"/><path d="M2510,810h-3v-3h-2v3h-3v2h3v3h2v-3h3Z" fill="#caedff"/><circle cx="2" cy="2" r="2" transform="translate(2448 864)" fill="#9bdaf3"/><circle cx="1" cy="1" r="1" transform="translate(2258 795)" fill="#caedff"/><circle cx="1" cy="1" r="1" transform="translate(2422 806)" fill="#caedff"/><path d="M2299,623h-3v-3h-2v3h-3v2h3v3h2v-3h3Z" fill="#caedff"/><path d="M2436,697h-3v-3h-2v3h-3v2h3v3h2v-3h3Z" fill="#9bdaf3"/><circle cx="1" cy="1" r="1" transform="translate(2421 545)" fill="#caedff"/><circle cx="2" cy="2" r="2" transform="translate(2368 616)" fill="#caedff"/><circle cx="2" cy="2" r="2" transform="translate(2506 574)" fill="#34b3e4"/><circle cx="1" cy="1" r="1" transform="translate(1637 91)" fill="#34b3e4"/><circle cx="1" cy="1" r="1" transform="translate(1522 316)" fill="#caedff"/><circle cx="1" cy="1" r="1" transform="translate(534 1027)" fill="#caedff"/><circle cx="1" cy="1" r="1" transform="translate(669 1039)" fill="#9bdaf3"/><circle cx="1" cy="1" r="1" transform="translate(817 1178)" fill="#9bdaf3"/><circle cx="1" cy="1" r="1" transform="translate(967 887)" fill="#caedff"/><g style="isolation:isolate"><path d="M2560,941.4,2480,991l-43-30-227,160,12,46,338,35.74Z" fill="#e6f7ff"/><path d="M244,989C204,960,85,823,69,801L1,854.21v367.21L210,1304l189-144S284,1018,244,989Z" fill="#e6f7ff" style="mix-blend-mode:multiply;isolation:isolate"/><path d="M69,801,1,854.21V986l20-32,50,103,44-92,40,53,68.18-46.8C172.85,924.07,82.77,819.94,69,801Z" fill="#e6f7ff" opacity="0.45" style="mix-blend-mode:screen;isolation:isolate"/><path d="M320,1294V1172s198-33.67,354,40,464.22,59,518,52,301.34-74.39,539-60c247.67,15,323.67,33.67,509-12.33V1294S321.33,1295,320,1294Z" fill="#e6f7ff" style="mix-blend-mode:multiply;isolation:isolate"/><path d="M320,1294H2240v146H320Z" fill="#caedff"/><path d="M794.5,1129,732,1401.73H857Zm1092,4.27L1824,1406h125Zm276.73-191L2056.96,1406H2269.5Zm304.54,60L2357,1406h221.54Z" fill="#9bdaf3"/><path d="M2278.77,1002.27,2168,1406h221.54Zm-1785.56,25L406.42,1406H580Zm-199-78L207.42,1406H381Z" fill="#9bdaf3"/><path d="M142.79,1024,56,1406H229.58l-86.79-382Z" fill="#9bdaf3"/><path d="M81.79,951-5,1406H168.58ZM1712.5,1185,1672,1361.73h81Z" fill="#9bdaf3"/><path d="M1605,1206l-22,96h44Z" fill="#caedff"/><path d="M1574,1227l-22,96h44Zm-125,23-22,96h44Zm-435-43-22,96h44Z" fill="#caedff"/><path d="M989,1235l-22,96h44Zm-71-12-22,96h44Z" fill="#caedff"/><path d="M660.5,1184l-33.62,146.73h67.25Z" fill="#9bdaf3"/><path d="M1789.21,974l-106.79,466H1896Z" fill="#65c3e8"/><path d="M1969.38,906,1847,1440h244.75Z" fill="#65c3e8"/><path d="M2087.44,833l-139.11,607h278.21Z" fill="#65c3e8"/><path d="M2375.6,847,2207,1440h337.21Z" fill="#65c3e8"/><path d="M2237.58,873l-129.94,567h259.87L2237.58,873Zm301.36,0L2409,1440h259.88ZM584.79,995.82,483,1440H686.58Z" fill="#65c3e8"/><path d="M444.42,893.82,319.25,1440H569.58Z" fill="#65c3e8"/><path d="M344.17,909.54,222.61,1440H465.73Z" fill="#65c3e8"/><path d="M222.44,822.54,88.88,1440H356Z" fill="#65c3e8"/><path d="M44.56,898-89,1440H178.13ZM718.5,1066.91,633,1440H804Z" fill="#65c3e8"/><path d="M1362,1311h38v6h-38Z" fill="#34b3e4"/><path d="M1399,1312v4h-36v-4h36m2-2h-40v8h40Z" fill="#005e93"/><path d="M1365,1305h38v6h-38Z" fill="#9bdaf3"/><path d="M1402,1306v4h-36v-4h36m2-2h-40v8h40Z" fill="#005e93"/><path d="M1173,1323v-26.29l-6.79-10.66,2-2.65,4.8,3.6v-9a1,1,0,0,1,1-1h28a1,1,0,0,1,1,1v45h-30Z" fill="#9bdaf3"/><path d="M1202,1278v44h-28v-25.58l-.31-.49-6.26-9.83,1-1.29,2.4,1.8,3.2,2.4v-11h28m0-2h-28a2,2,0,0,0-2,2v7l-4-3-3,4,7,11v27h32v-46A2,2,0,0,0,1202.03,1276.01Z" fill="#005e93"/><path d="M1178,1301h2v21h-2Zm6,17h2v4h-2Zm0-36h2v4h-2Zm0,8h2v19h-2Zm6,24h2v8h-2Zm0-34h2v13h-2Zm0,21h2v9h-2Zm-12-11h2v8h-2Zm0-12h2v6h-2Zm18,0h2v12h-2Zm0,14h2v9h-2Zm0,12h2v15h-2Z" fill="#005e93"/><path d="M1356,1316h50v2h-50Z" fill="#9bdaf3"/><path d="M1162,1323a1,1,0,0,1-1-1v-26a1,1,0,0,1,1-1h18v28Z" fill="#e1e9ee"/><path d="M1179,1296v26h-17v-26h17m2-2h-19a2,2,0,0,0-2,2v26a2,2,0,0,0,2,2h19Z" fill="#005e93"/><path d="M1164,1298h15v22h-15Z" fill="#fff"/><path d="M1180,1323v-28h18a1,1,0,0,1,1,1v26a1,1,0,0,1-1,1Z" fill="#e1e9ee"/><path d="M1198,1296v26h-17v-26h17m0-2h-19v30h19a2,2,0,0,0,2-2v-26A2,2,0,0,0,1198,1294Z" fill="#005e93"/><path d="M1196,1320h-15v-22h15Z" fill="#fff"/><path d="M1166,1304h11v2h-11Zm0,4h11v2h-11Zm0,4h6v2h-6Z" fill="#e1e9ee"/><path d="M1177,1316l-2-2-2,2v-18h4Z" fill="#65c3e8"/><path d="M1166,1300h5v2h-5Zm17,4h11v2h-11Zm0,4h11v2h-11Zm0,4h11v2h-11Zm0,4h8v2h-8Zm0-16h5v2h-5Z" fill="#e1e9ee"/><path d="M1156,1322h52v2h-52Z" fill="#9bdaf3"/><path d="M1377,1306h14v4h-14Z" fill="#65c3e8"/><path d="M1367,1312h14v4h-14Z" fill="#0084bf"/><path d="M995.25,1359l1.62-7.3,10.25-4.66,9.12,1.83,1.91,5.74L1024,1359H995.25Z" fill="#e1e9ee"/><path d="M1007.24,1348.09l8.23,1.65,1.63,4.9.2.59.5.38,3.2,2.4H996.49l1.24-5.59,9.5-4.32m-.23-2.1-11,5-2,9h33l-8-6-2-6Z" fill="#acb9c2"/><path d="M966.28,1352l.62-2.49,3.46-3.46,7.02.88,2.9,5.07h-14Z" fill="#e1e9ee"/><path d="M970.72,1347.11l6,.75,1.79,3.14h-11l.24-1,2.92-2.92M970,1345l-4,4-1,4h17l-4-7Z" fill="#acb9c2"/><g transform="translate(2767.083 2621.401) rotate(-180)"><path d="M1175.091,1337.165v-34.385l-8.881-13.943,2.616-3.466,6.278,4.708v-11.771a1.308,1.308,0,0,1,1.308-1.308h36.622a1.308,1.308,0,0,1,1.308,1.308v58.857H1175.1Z" transform="translate(0.363 0.305)" fill="#9bdaf3"/><path d="M1213.385,1278.612v57.549h-36.622V1302.7l-.406-.641-8.188-12.857,1.308-1.687,3.139,2.354,4.185,3.139v-14.387h36.622m0-2.616H1176.8a2.616,2.616,0,0,0-2.616,2.616v9.156l-5.232-3.924-3.924,5.232,9.156,14.387v32.685a2.644,2.644,0,0,0,2.577,2.629h36.622c1.846.034,2.717-.8,2.7-2.535l-.044-57.63A2.616,2.616,0,0,0,1213.424,1276.01Z" transform="translate(0 0)" fill="#005e93"/><path d="M1178,1308.082h2.616v27.466H1178Zm7.848,22.235h2.616v5.232h-2.616Zm0-47.085h2.616v5.232h-2.616Zm0,10.463h2.616v24.851h-2.616Zm7.848,31.39h2.616v10.463H1193.7Zm0-44.469h2.616v17H1193.7Zm0,27.466h2.616v11.771H1193.7ZM1178,1293.7h2.616v10.464H1178Zm0-15.7h2.616v7.848H1178Zm23.543,0h2.616v15.7h-2.616Zm0,18.311h2.616v11.771h-2.616Zm0,15.7h2.616v19.619h-2.616Z" transform="translate(3.994 0.613)" fill="#005e93"/></g><path d="M991,1358h38v2H991Z" fill="#9bdaf3"/><path d="M1156,1322h52v2h-52Z" transform="translate(393 23)" fill="#9bdaf3"/><path d="M1522.26,1357l2.63-11.43,8.58-6.67,15.49-4.84,17.32,6.73,8.1,16.21h-52.12Z" fill="#e1e9ee"/><path d="M1548.93,1335.12l16.63,6.47,7.21,14.42h-49.25l2.27-9.86,8.15-6.34,15-4.68m.06-2.13-16,5-9,7-3,13h55l-9-18Z" fill="#acb9c2"/><path d="M1516,1356h66v2h-66Zm-553-5h20v2H963Z" fill="#9bdaf3"/><g transform="translate(-107.473 10.599)"><path d="M1175.091,1337.165v-34.385l-8.881-13.943,2.616-3.466,6.278,4.708v-11.771a1.308,1.308,0,0,1,1.308-1.308h36.622a1.308,1.308,0,0,1,1.308,1.308v58.857H1175.1Z" transform="translate(0.363 0.305)" fill="#9bdaf3"/><path d="M1213.385,1278.612v57.549h-36.622V1302.7l-.406-.641-8.188-12.857,1.308-1.687,3.139,2.354,4.185,3.139v-14.387h36.622m0-2.616H1176.8a2.616,2.616,0,0,0-2.616,2.616v9.156l-5.232-3.924-3.924,5.232,9.156,14.387v32.685a2.644,2.644,0,0,0,2.577,2.629h36.622c1.846.034,2.717-.8,2.7-2.535l-.044-57.63A2.616,2.616,0,0,0,1213.424,1276.01Z" transform="translate(0 0)" fill="#005e93"/><path d="M1178,1308.082h2.616v27.466H1178Zm7.848,22.235h2.616v5.232h-2.616Zm0-47.085h2.616v5.232h-2.616Zm0,10.463h2.616v24.851h-2.616Zm7.848,31.39h2.616v10.463H1193.7Zm0-44.469h2.616v17H1193.7Zm0,27.466h2.616v11.771H1193.7ZM1178,1293.7h2.616v10.464H1178Zm0-15.7h2.616v7.848H1178Zm23.543,0h2.616v15.7h-2.616Zm0,18.311h2.616v11.771h-2.616Zm0,15.7h2.616v19.619h-2.616Z" transform="translate(3.994 0.613)" fill="#005e93"/></g><path d="M1156,1322h52v2h-52Z" transform="translate(-95 26)" fill="#9bdaf3"/><path d="M1362,1311h56.648v8.944H1362Z" transform="translate(-165.056 66.435)" fill="#34b3e4"/><path d="M1417.648,1312.981v5.963h-53.667v-5.963h53.667m2.981-2.981H1361v11.926h59.63Z" transform="translate(-165.546 65.944)" fill="#005e93"/><path d="M1365,1305h56.648v8.944H1365Z" transform="translate(-163.583 63.491)" fill="#9bdaf3"/><path d="M1420.648,1306.981v5.963h-53.667v-5.963h53.667m2.981-2.981H1364v11.926h59.63Z" transform="translate(-164.074 63)" fill="#005e93"/><path d="M1356,1316h74.537v2.981H1356Z" transform="translate(-168 68.889)" fill="#9bdaf3"/><path d="M1377,1306h20.87v5.963H1377Z" transform="translate(-157.694 63.981)" fill="#65c3e8"/><path d="M1367,1312h20.87v5.963H1367Z" transform="translate(-162.602 66.926)" fill="#0084bf"/><g transform="translate(295.461 10.409)"><path d="M1170.6,1306.748v-17l-4.391-6.894,1.293-1.714,3.1,2.328v-5.82a.647.647,0,0,1,.647-.647h18.108a.647.647,0,0,1,.647.647v29.1h-19.4Z" transform="translate(-0.417 -0.35)" fill="#9bdaf3"/><path d="M1188.939,1277.3v28.455h-18.107v-16.542l-.2-.317-4.048-6.357.647-.834,1.552,1.164,2.069,1.552V1277.3h18.107m0-1.293h-18.107a1.293,1.293,0,0,0-1.293,1.293v4.527l-2.587-1.94-1.94,2.587,4.527,7.114v16.161a1.307,1.307,0,0,0,1.274,1.3h18.107c.913.017,1.344-.4,1.335-1.253l-.022-28.495A1.293,1.293,0,0,0,1188.958,1276.01Z" transform="translate(0 0)" fill="#005e93"/><path d="M1178,1292.874h1.293v13.581H1178Zm3.88,10.994h1.293v2.587h-1.293Zm0-23.281h1.293v2.587h-1.293Zm0,5.173h1.293v12.287h-1.293Zm3.88,15.521h1.293v5.174h-1.293Zm0-21.988h1.293v8.407h-1.293Zm0,13.581h1.293v5.82h-1.293Zm-7.76-7.114h1.293v5.174H1178Zm0-7.76h1.293v3.88H1178Zm11.641,0h1.293v7.76h-1.293Zm0,9.054h1.293v5.82h-1.293Zm0,7.76h1.293v9.7h-1.293Z" transform="translate(-4.582 -0.703)" fill="#005e93"/></g><path d="M1356,1316h31.019v2H1356Z" transform="translate(103.49 1)" fill="#9bdaf3"/></g><path d="M1243.73,1313.82a1,1,0,0,1-.5-.13l-3.46-2a1,1,0,0,1-.37-1.36l37.5-65,5.2,3-37.5,65a1,1,0,0,1-.87.5Z" fill="#c7d1d8"/><path d="M1277.27,1246.73l3.46,2-37,64.09-3.46-2,37-64.09m-.73-2.73-38,65.82a2,2,0,0,0,.73,2.73l3.46,2a2,2,0,0,0,2.73-.73l38-65.82-6.93-4Z" fill="#005e93"/><path d="M1316.27,1313.82a1,1,0,0,1-.87-.5l-37.5-65,5.2-3,37.5,65a1,1,0,0,1-.37,1.37l-3.46,2A1,1,0,0,1,1316.27,1313.82Z" fill="#c7d1d8"/><path d="M1282.73,1246.73l37,64.09-3.46,2-37-64.09,3.46-2m.73-2.73-6.93,4,38,65.82a2,2,0,0,0,2.73.73l3.46-2a2,2,0,0,0,.73-2.73l-38-65.82Z" fill="#005e93"/><path d="M1278,1323a1,1,0,0,1-1-1v-75h6v75a1,1,0,0,1-1,1Z" fill="#e1e9ee"/><path d="M1282,1248v74h-4v-74h4m2-2h-8v76a2,2,0,0,0,2,2h4a2,2,0,0,0,2-2Z" fill="#005e93"/><rect width="22" height="10" rx="1" transform="translate(1269 1237)" fill="#65c3e8"/><path d="M1290,1238v8h-20v-8h20m0-2h-20a2,2,0,0,0-2,2v8a2,2,0,0,0,2,2h20a2,2,0,0,0,2-2v-8A2,2,0,0,0,1290,1236Z" fill="#005e93"/><path d="M1272,1253a1,1,0,0,1-1-1v-5h18v5a1,1,0,0,1-1,1Z" fill="#65c3e8"/><path d="M1288,1248v4h-16v-4h16m2-2h-20v6a2,2,0,0,0,2,2h16a2,2,0,0,0,2-2Z" fill="#005e93"/><path d="M1278,1229h4v8h-4Z" fill="#c7d1d8"/><path d="M1281,1230v6h-2v-6h2m2-2h-6v10h6Z" fill="#005e93"/><path d="M1277.68,1229a1.68,1.68,0,0,1-1.68-1.68V1213h8v14.32a1.68,1.68,0,0,1-1.68,1.68h-4.63Z" fill="#e1e9ee"/><path d="M1283,1214v13.32a.68.68,0,0,1-.68.68h-4.63a.68.68,0,0,1-.68-.68V1214h6m2-2h-10v15.32a2.68,2.68,0,0,0,2.68,2.68h4.63a2.68,2.68,0,0,0,2.68-2.68V1212ZM1279,1322h2v6h-2Zm-37.871-10.677,1.732,1-3,5.2-1.732-1Zm76.006,1,1.732-1,3,5.2-1.732,1Z" fill="#005e93"/><path d="M1273,1328h14v2h-14Zm40-12h14v2h-14Zm-80,0h14v2h-14Z" fill="#9bdaf3"/><path d="M1267.68,1229.93a1,1,0,0,1-.87-.5l-8-13.86a1,1,0,0,1,.37-1.37l25.11-14.5,9,15.59-25.11,14.5a1,1,0,0,1-.5.13Z" fill="#fff"/><path d="M1283.93,1201.07l8,13.86-24.25,14-8-13.86,24.25-14m.73-2.73-26,15a2,2,0,0,0-.73,2.73l8,13.86a2,2,0,0,0,2.73.73l26-15Z" fill="#005e93"/><path d="M1295.16,1217.53a1,1,0,0,1-.87-.5l-11-19.05a1,1,0,0,1,.37-1.37l28.58-16.5,12,20.79-28.58,16.5a1,1,0,0,1-.5.13Z" fill="#fff"/><path d="M1311.87,1181.47l11,19.05-27.71,16-11-19.05,27.71-16m.73-2.73-29.44,17a2,2,0,0,0-.73,2.73l11,19.05a2,2,0,0,0,2.73.73l29.44-17-13-22.52Z" fill="#005e93"/><path d="M1326.11,1203.12a1,1,0,0,1-.87-.5l-14-24.25a1,1,0,0,1,.37-1.37l3.46-2a1.013,1.013,0,0,1,1.37.37l14,24.25a1,1,0,0,1-.37,1.37l-3.46,2A1,1,0,0,1,1326.11,1203.12Z" fill="#65c3e8"/><path d="M1315.57,1175.88l14,24.25-3.46,2-14-24.25,3.46-2m0-2a2,2,0,0,0-1,.27l-3.46,2a2,2,0,0,0-.73,2.73l14,24.25a2,2,0,0,0,2.73.73l3.46-2a2,2,0,0,0,.73-2.73l-14-24.25A2,2,0,0,0,1315.57,1173.88Z" fill="#005e93"/><path d="M1248.86,1237.33a1,1,0,0,1-.87-.5l-5-8.66a1,1,0,0,1,.37-1.37l16.45-9.5,6,10.39-16.45,9.5a1,1,0,0,1-.5.13Z" fill="#fff"/><path d="M1259.45,1218.67l5,8.66-15.59,9-5-8.66,15.59-9m.73-2.73-17.32,10a2,2,0,0,0-.73,2.73l5,8.66a2,2,0,0,0,2.73.73l17.32-10Z" fill="#005e93"/><path d="M1237.565,1234.761l6.928-4,2,3.464-6.928,4Z" fill="#f3f6f8"/><path d="M1244.13,1232.13l1,1.73-5.2,3-1-1.73,5.2-3m.73-2.73-8.66,5,3,5.2,8.66-5Z" fill="#005e93"/><path d="M1237.426,1232.53l4,6.928-1.732,1-4-6.928Z" fill="#005e93"/><path d="M1282.191,1202.073l1.732-1,8,13.856-1.732,1Zm-24.479,17.6,1.732-1,5,8.66-1.732,1Zm52.434-37.2,1.732-1,11,19.053-1.732,1Z" fill="#caedff"/></g></svg>