<svg xmlns="http://www.w3.org/2000/svg" width="970" height="493" viewBox="0 0 970 493"><g transform="translate(-798.94 -887)"><path d="M1562,1118h-3v-3h-2v3h-3v2h3v3h2v-3h3Z" fill="#9bdaf3"/><path d="M923,1143h-3v-3h-2v3h-3v2h3v3h2v-3h3Z" fill="#caedff"/><path d="M1527,1067h-3v-3h-2v3h-3v2h3v3h2v-3h3Z" fill="#34b3e4"/><path d="M1108,1150h-3v-3h-2v3h-3v2h3v3h2v-3h3Z" fill="#caedff"/><path d="M1686,918h-3v-3h-2v3h-3v2h3v3h2v-3h3Z" fill="#caedff"/><path d="M1725,1061h-3v-3h-2v3h-3v2h3v3h2v-3h3Z" fill="#caedff"/><circle cx="1" cy="1" r="1" transform="translate(983 1039)" fill="#caedff"/><circle cx="1" cy="1" r="1" transform="translate(1441 1046)" fill="#34b3e4"/><circle cx="1" cy="1" r="1" transform="translate(1619 1063)" fill="#acb9c2"/><circle cx="2" cy="2" r="2" transform="translate(892 952)" fill="#caedff"/><circle cx="2" cy="2" r="2" transform="translate(899 1210)" fill="#34b3e4"/><circle cx="2" cy="2" r="2" transform="translate(1318 1105)" fill="#caedff"/><circle cx="2" cy="2" r="2" transform="translate(1703 1161)" fill="#34b3e4"/><circle cx="1" cy="1" r="1" transform="translate(1173 1073)" fill="#acb9c2"/><circle cx="1" cy="1" r="1" transform="translate(1216 1147)" fill="#acb9c2"/><circle cx="1" cy="1" r="1" transform="translate(1413 1087)" fill="#9bdaf3"/><circle cx="1" cy="1" r="1" transform="translate(1726 975)" fill="#9bdaf3"/><circle cx="1" cy="1" r="1" transform="translate(1625 1171)" fill="#34b3e4"/><circle cx="1" cy="1" r="1" transform="translate(861 1076)" fill="#caedff"/><circle cx="1" cy="1" r="1" transform="translate(1058 1184)" fill="#caedff"/><circle cx="1" cy="1" r="1" transform="translate(817 1178)" fill="#9bdaf3"/><circle cx="1" cy="1" r="1" transform="translate(967 887)" fill="#caedff"/><g style="isolation:isolate"><path d="M320,1294V1172s100.031-33.67,178.844,40,234.528,59,261.7,52,152.239-74.39,272.307-60c125.125,15,163.521,33.67,257.151-12.33V1294S320.672,1295,320,1294Z" transform="translate(478.94)" fill="#e6f7ff" style="mix-blend-mode:multiply;isolation:isolate"/><path d="M320,1294h970v86H320Z" transform="translate(478.94)" fill="#caedff"/><path d="M1574,1227l-22,96h44Zm-125,23-22,96h44Zm-435-43-22,96h44Z" fill="#caedff"/><path d="M1362,1311h38v6h-38Z" fill="#34b3e4"/><path d="M1399,1312v4h-36v-4h36m2-2h-40v8h40Z" fill="#005e93"/><path d="M1365,1305h38v6h-38Z" fill="#9bdaf3"/><path d="M1402,1306v4h-36v-4h36m2-2h-40v8h40Z" fill="#005e93"/><path d="M1356,1316h50v2h-50Z" fill="#9bdaf3"/><path d="M1162,1323a1,1,0,0,1-1-1v-26a1,1,0,0,1,1-1h18v28Z" fill="#e1e9ee"/><path d="M1179,1296v26h-17v-26h17m2-2h-19a2,2,0,0,0-2,2v26a2,2,0,0,0,2,2h19Z" fill="#005e93"/><path d="M1164,1298h15v22h-15Z" fill="#fff"/><path d="M1180,1323v-28h18a1,1,0,0,1,1,1v26a1,1,0,0,1-1,1Z" fill="#e1e9ee"/><path d="M1198,1296v26h-17v-26h17m0-2h-19v30h19a2,2,0,0,0,2-2v-26A2,2,0,0,0,1198,1294Z" fill="#005e93"/><path d="M1196,1320h-15v-22h15Z" fill="#fff"/><path d="M1166,1304h11v2h-11Zm0,4h11v2h-11Zm0,4h6v2h-6Z" fill="#e1e9ee"/><path d="M1177,1316l-2-2-2,2v-18h4Z" fill="#65c3e8"/><path d="M1166,1300h5v2h-5Zm17,4h11v2h-11Zm0,4h11v2h-11Zm0,4h11v2h-11Zm0,4h8v2h-8Zm0-16h5v2h-5Z" fill="#e1e9ee"/><path d="M1156,1322h52v2h-52Z" fill="#9bdaf3"/><path d="M1377,1306h14v4h-14Z" fill="#65c3e8"/><path d="M1367,1312h14v4h-14Z" fill="#0084bf"/><g transform="translate(160)"><path d="M995.25,1359l1.62-7.3,10.25-4.66,9.12,1.83,1.91,5.74L1024,1359H995.25Z" fill="#e1e9ee"/><path d="M1007.24,1348.09l8.23,1.65,1.63,4.9.2.59.5.38,3.2,2.4H996.49l1.24-5.59,9.5-4.32m-.23-2.1-11,5-2,9h33l-8-6-2-6Z" fill="#acb9c2"/></g><g transform="translate(230)"><path d="M966.28,1352l.62-2.49,3.46-3.46,7.02.88,2.9,5.07h-14Z" fill="#e1e9ee"/><path d="M970.72,1347.11l6,.75,1.79,3.14h-11l.24-1,2.92-2.92M970,1345l-4,4-1,4h17l-4-7Z" fill="#acb9c2"/></g><path d="M991,1358h38v2H991Z" transform="translate(160)" fill="#9bdaf3"/><g transform="translate(-180 -4)"><path d="M1522.26,1357l2.63-11.43,8.58-6.67,15.49-4.84,17.32,6.73,8.1,16.21h-52.12Z" fill="#e1e9ee"/><path d="M1548.93,1335.12l16.63,6.47,7.21,14.42h-49.25l2.27-9.86,8.15-6.34,15-4.68m.06-2.13-16,5-9,7-3,13h55l-9-18Z" fill="#acb9c2"/></g><path d="M991,1358h23.8v2H991Z" transform="translate(200 -5)" fill="#9bdaf3"/><path d="M991,1358h65v2H991Z" transform="translate(344 -4)" fill="#9bdaf3"/></g><path d="M1243.73,1313.82a1,1,0,0,1-.5-.13l-3.46-2a1,1,0,0,1-.37-1.36l37.5-65,5.2,3-37.5,65a1,1,0,0,1-.87.5Z" fill="#c7d1d8"/><path d="M1277.27,1246.73l3.46,2-37,64.09-3.46-2,37-64.09m-.73-2.73-38,65.82a2,2,0,0,0,.73,2.73l3.46,2a2,2,0,0,0,2.73-.73l38-65.82-6.93-4Z" fill="#005e93"/><path d="M1316.27,1313.82a1,1,0,0,1-.87-.5l-37.5-65,5.2-3,37.5,65a1,1,0,0,1-.37,1.37l-3.46,2A1,1,0,0,1,1316.27,1313.82Z" fill="#c7d1d8"/><path d="M1282.73,1246.73l37,64.09-3.46,2-37-64.09,3.46-2m.73-2.73-6.93,4,38,65.82a2,2,0,0,0,2.73.73l3.46-2a2,2,0,0,0,.73-2.73l-38-65.82Z" fill="#005e93"/><path d="M1278,1323a1,1,0,0,1-1-1v-75h6v75a1,1,0,0,1-1,1Z" fill="#e1e9ee"/><path d="M1282,1248v74h-4v-74h4m2-2h-8v76a2,2,0,0,0,2,2h4a2,2,0,0,0,2-2Z" fill="#005e93"/><rect width="22" height="10" rx="1" transform="translate(1269 1237)" fill="#65c3e8"/><path d="M1290,1238v8h-20v-8h20m0-2h-20a2,2,0,0,0-2,2v8a2,2,0,0,0,2,2h20a2,2,0,0,0,2-2v-8A2,2,0,0,0,1290,1236Z" fill="#005e93"/><path d="M1272,1253a1,1,0,0,1-1-1v-5h18v5a1,1,0,0,1-1,1Z" fill="#65c3e8"/><path d="M1288,1248v4h-16v-4h16m2-2h-20v6a2,2,0,0,0,2,2h16a2,2,0,0,0,2-2Z" fill="#005e93"/><path d="M1278,1229h4v8h-4Z" fill="#c7d1d8"/><path d="M1281,1230v6h-2v-6h2m2-2h-6v10h6Z" fill="#005e93"/><path d="M1277.68,1229a1.68,1.68,0,0,1-1.68-1.68V1213h8v14.32a1.68,1.68,0,0,1-1.68,1.68h-4.63Z" fill="#e1e9ee"/><path d="M1283,1214v13.32a.68.68,0,0,1-.68.68h-4.63a.68.68,0,0,1-.68-.68V1214h6m2-2h-10v15.32a2.68,2.68,0,0,0,2.68,2.68h4.63a2.68,2.68,0,0,0,2.68-2.68V1212ZM1279,1322h2v6h-2Zm-37.871-10.677,1.732,1-3,5.2-1.732-1Zm76.006,1,1.732-1,3,5.2-1.732,1Z" fill="#005e93"/><path d="M1273,1328h14v2h-14Zm40-12h14v2h-14Zm-80,0h14v2h-14Z" fill="#9bdaf3"/><path d="M1267.68,1229.93a1,1,0,0,1-.87-.5l-8-13.86a1,1,0,0,1,.37-1.37l25.11-14.5,9,15.59-25.11,14.5a1,1,0,0,1-.5.13Z" fill="#fff"/><path d="M1283.93,1201.07l8,13.86-24.25,14-8-13.86,24.25-14m.73-2.73-26,15a2,2,0,0,0-.73,2.73l8,13.86a2,2,0,0,0,2.73.73l26-15Z" fill="#005e93"/><path d="M1295.16,1217.53a1,1,0,0,1-.87-.5l-11-19.05a1,1,0,0,1,.37-1.37l28.58-16.5,12,20.79-28.58,16.5a1,1,0,0,1-.5.13Z" fill="#fff"/><path d="M1311.87,1181.47l11,19.05-27.71,16-11-19.05,27.71-16m.73-2.73-29.44,17a2,2,0,0,0-.73,2.73l11,19.05a2,2,0,0,0,2.73.73l29.44-17-13-22.52Z" fill="#005e93"/><path d="M1326.11,1203.12a1,1,0,0,1-.87-.5l-14-24.25a1,1,0,0,1,.37-1.37l3.46-2a1.013,1.013,0,0,1,1.37.37l14,24.25a1,1,0,0,1-.37,1.37l-3.46,2A1,1,0,0,1,1326.11,1203.12Z" fill="#65c3e8"/><path d="M1315.57,1175.88l14,24.25-3.46,2-14-24.25,3.46-2m0-2a2,2,0,0,0-1,.27l-3.46,2a2,2,0,0,0-.73,2.73l14,24.25a2,2,0,0,0,2.73.73l3.46-2a2,2,0,0,0,.73-2.73l-14-24.25A2,2,0,0,0,1315.57,1173.88Z" fill="#005e93"/><path d="M1248.86,1237.33a1,1,0,0,1-.87-.5l-5-8.66a1,1,0,0,1,.37-1.37l16.45-9.5,6,10.39-16.45,9.5a1,1,0,0,1-.5.13Z" fill="#fff"/><path d="M1259.45,1218.67l5,8.66-15.59,9-5-8.66,15.59-9m.73-2.73-17.32,10a2,2,0,0,0-.73,2.73l5,8.66a2,2,0,0,0,2.73.73l17.32-10Z" fill="#005e93"/><path d="M1237.565,1234.761l6.928-4,2,3.464-6.928,4Z" fill="#f3f6f8"/><path d="M1244.13,1232.13l1,1.73-5.2,3-1-1.73,5.2-3m.73-2.73-8.66,5,3,5.2,8.66-5Z" fill="#005e93"/><path d="M1237.426,1232.53l4,6.928-1.732,1-4-6.928Z" fill="#005e93"/><path d="M1282.191,1202.073l1.732-1,8,13.856-1.732,1Zm-24.479,17.6,1.732-1,5,8.66-1.732,1Zm52.434-37.2,1.732-1,11,19.053-1.732,1Z" fill="#caedff"/></g></svg>