<svg xmlns="http://www.w3.org/2000/svg" width="2757.88" height="1379" viewBox="0 0 2757.88 1379">
  <g id="chat" transform="translate(89 -61)">
    <path id="Path_1" data-name="Path 1" d="M1562,1118h-3v-3h-2v3h-3v2h3v3h2v-3h3Z" fill="#9bdaf3"/>
    <path id="Path_2" data-name="Path 2" d="M1075,1019h-3v-3h-2v3h-3v2h3v3h2v-3h3Zm-330,43h-3v-3h-2v3h-3v2h3v3h2v-3h3Z" fill="#34b3e4"/>
    <path id="Path_3" data-name="Path 3" d="M649,797h-3v-3h-2v3h-3v2h3v3h2v-3h3Zm704,253h-3v-3h-2v3h-3v2h3v3h2v-3h3Z" fill="#caedff"/>
    <path id="Path_4" data-name="Path 4" d="M923,1143h-3v-3h-2v3h-3v2h3v3h2v-3h3Z" fill="#caedff"/>
    <path id="Path_5" data-name="Path 5" d="M659,1132h-3v-3h-2v3h-3v2h3v3h2v-3h3Z" fill="#9bdaf3"/>
    <path id="Path_6" data-name="Path 6" d="M1527,1067h-3v-3h-2v3h-3v2h3v3h2v-3h3Z" fill="#34b3e4"/>
    <path id="Path_7" data-name="Path 7" d="M2179,696h-3v-3h-2v3h-3v2h3v3h2v-3h3Z" fill="#34b3e4"/>
    <path id="Path_8" data-name="Path 8" d="M1108,1150h-3v-3h-2v3h-3v2h3v3h2v-3h3Z" fill="#caedff"/>
    <path id="Path_9" data-name="Path 9" d="M786,871h-3v-3h-2v3h-3v2h3v3h2v-3h3ZM542,716h-3v-3h-2v3h-3v2h3v3h2v-3h3Z" fill="#9bdaf3"/>
    <path id="Path_10" data-name="Path 10" d="M656,584h-3v-3h-2v3h-3v2h3v3h2v-3h3Z" fill="#9bdaf3"/>
    <path id="Path_11" data-name="Path 11" d="M546,923h-3v-3h-2v3h-3v2h3v3h2v-3h3Z" fill="#9bdaf3"/>
    <path id="Path_12" data-name="Path 12" d="M782,666h-3v-3h-2v3h-3v2h3v3h2v-3h3Z" fill="#caedff"/>
    <path id="Path_13" data-name="Path 13" d="M975,487h-3v-3h-2v3h-3v2h3v3h2v-3h3Z" fill="#caedff"/>
    <path id="Path_14" data-name="Path 14" d="M1858,1157h-3v-3h-2v3h-3v2h3v3h2v-3h3Z" fill="#34b3e4"/>
    <path id="Path_15" data-name="Path 15" d="M1686,918h-3v-3h-2v3h-3v2h3v3h2v-3h3Z" fill="#caedff"/>
    <path id="Path_16" data-name="Path 16" d="M1725,1061h-3v-3h-2v3h-3v2h3v3h2v-3h3Z" fill="#caedff"/>
    <path id="Path_17" data-name="Path 17" d="M1777,792h-3v-3h-2v3h-3v2h3v3h2v-3h3Z" fill="#9bdaf3"/>
    <path id="Path_18" data-name="Path 18" d="M1546,471h-3v-3h-2v3h-3v2h3v3h2v-3h3Z" fill="#caedff"/>
    <path id="Path_19" data-name="Path 19" d="M444,518h-3v-3h-2v3h-3v2h3v3h2v-3h3Z" fill="#34b3e4"/>
    <path id="Path_20" data-name="Path 20" d="M1735,495h-3v-3h-2v3h-3v2h3v3h2v-3h3Z" fill="#9bdaf3"/>
    <path id="Path_21" data-name="Path 21" d="M1605,613h-3v-3h-2v3h-3v2h3v3h2v-3h3Zm215,386h-3v-3h-2v3h-3v2h3v3h2v-3h3Z" fill="#caedff"/>
    <path id="Path_22" data-name="Path 22" d="M2038,835h-3v-3h-2v3h-3v2h3v3h2v-3h3Zm-110-31h-3v-3h-2v3h-3v2h3v3h2v-3h3Z" fill="#caedff"/>
    <path id="Path_23" data-name="Path 23" d="M2137,570h-3v-3h-2v3h-3v2h3v3h2v-3h3Z" fill="#caedff"/>
    <path id="Path_24" data-name="Path 24" d="M1821,603h-3v-3h-2v3h-3v2h3v3h2v-3h3Z" fill="#caedff"/>
    <path id="Path_25" data-name="Path 25" d="M1967,468h-3v-3h-2v3h-3v2h3v3h2v-3h3Z" fill="#caedff"/>
    <circle id="Ellipse_1" data-name="Ellipse 1" cx="1" cy="1" r="1" transform="translate(771 719)" fill="#caedff"/>
    <circle id="Ellipse_2" data-name="Ellipse 2" cx="1" cy="1" r="1" transform="translate(629 682)" fill="#caedff"/>
    <circle id="Ellipse_3" data-name="Ellipse 3" cx="1" cy="1" r="1" transform="translate(757 935)" fill="#caedff"/>
    <circle id="Ellipse_4" data-name="Ellipse 4" cx="1" cy="1" r="1" transform="translate(983 1039)" fill="#caedff"/>
    <circle id="Ellipse_5" data-name="Ellipse 5" cx="1" cy="1" r="1" transform="translate(1441 1046)" fill="#34b3e4"/>
    <circle id="Ellipse_6" data-name="Ellipse 6" cx="1" cy="1" r="1" transform="translate(1619 1063)" fill="#acb9c2"/>
    <circle id="Ellipse_7" data-name="Ellipse 7" cx="2" cy="2" r="2" transform="translate(1909 987)" fill="#caedff"/>
    <circle id="Ellipse_8" data-name="Ellipse 8" cx="2" cy="2" r="2" transform="translate(1895 884)" fill="#caedff"/>
    <circle id="Ellipse_9" data-name="Ellipse 9" cx="2" cy="2" r="2" transform="translate(1671 694)" fill="#caedff"/>
    <circle id="Ellipse_10" data-name="Ellipse 10" cx="2" cy="2" r="2" transform="translate(1905 522)" fill="#9bdaf3"/>
    <circle id="Ellipse_11" data-name="Ellipse 11" cx="2" cy="2" r="2" transform="translate(2022 994)" fill="#9bdaf3"/>
    <circle id="Ellipse_12" data-name="Ellipse 12" cx="2" cy="2" r="2" transform="translate(2170 904)" fill="#9bdaf3"/>
    <circle id="Ellipse_13" data-name="Ellipse 13" cx="2" cy="2" r="2" transform="translate(879 591)" fill="#caedff"/>
    <circle id="Ellipse_14" data-name="Ellipse 14" cx="2" cy="2" r="2" transform="translate(430 638)" fill="#caedff"/>
    <circle id="Ellipse_15" data-name="Ellipse 15" cx="2" cy="2" r="2" transform="translate(718 790)" fill="#caedff"/>
    <circle id="Ellipse_16" data-name="Ellipse 16" cx="2" cy="2" r="2" transform="translate(394 746)" fill="#caedff"/>
    <circle id="Ellipse_17" data-name="Ellipse 17" cx="2" cy="2" r="2" transform="translate(892 952)" fill="#caedff"/>
    <circle id="Ellipse_18" data-name="Ellipse 18" cx="2" cy="2" r="2" transform="translate(702 948)" fill="#caedff"/>
    <circle id="Ellipse_19" data-name="Ellipse 19" cx="2" cy="2" r="2" transform="translate(899 1210)" fill="#34b3e4"/>
    <circle id="Ellipse_20" data-name="Ellipse 20" cx="2" cy="2" r="2" transform="translate(1318 1105)" fill="#caedff"/>
    <circle id="Ellipse_21" data-name="Ellipse 21" cx="2" cy="2" r="2" transform="translate(856 748)" fill="#34b3e4"/>
    <circle id="Ellipse_22" data-name="Ellipse 22" cx="2" cy="2" r="2" transform="translate(1703 1161)" fill="#34b3e4"/>
    <circle id="Ellipse_23" data-name="Ellipse 23" cx="1" cy="1" r="1" transform="translate(1945 902)" fill="#caedff"/>
    <circle id="Ellipse_24" data-name="Ellipse 24" cx="1" cy="1" r="1" transform="translate(1949 682)" fill="#34b3e4"/>
    <circle id="Ellipse_25" data-name="Ellipse 25" cx="1" cy="1" r="1" transform="translate(1715 453)" fill="#caedff"/>
    <circle id="Ellipse_26" data-name="Ellipse 26" cx="1" cy="1" r="1" transform="translate(1650 531)" fill="#caedff"/>
    <circle id="Ellipse_27" data-name="Ellipse 27" cx="1" cy="1" r="1" transform="translate(1105 464)" fill="#34b3e4"/>
    <circle id="Ellipse_28" data-name="Ellipse 28" cx="1" cy="1" r="1" transform="translate(841 531)" fill="#34b3e4"/>
    <circle id="Ellipse_29" data-name="Ellipse 29" cx="1" cy="1" r="1" transform="translate(530 607)" fill="#34b3e4"/>
    <circle id="Ellipse_30" data-name="Ellipse 30" cx="1" cy="1" r="1" transform="translate(596 511)" fill="#34b3e4"/>
    <circle id="Ellipse_31" data-name="Ellipse 31" cx="1" cy="1" r="1" transform="translate(755 600)" fill="#caedff"/>
    <circle id="Ellipse_32" data-name="Ellipse 32" cx="1" cy="1" r="1" transform="translate(981 557)" fill="#caedff"/>
    <circle id="Ellipse_33" data-name="Ellipse 33" cx="1" cy="1" r="1" transform="translate(622 518)" fill="#caedff"/>
    <circle id="Ellipse_34" data-name="Ellipse 34" cx="1" cy="1" r="1" transform="translate(1494 549)" fill="#caedff"/>
    <circle id="Ellipse_35" data-name="Ellipse 35" cx="1" cy="1" r="1" transform="translate(1276 485)" fill="#9bdaf3"/>
    <circle id="Ellipse_36" data-name="Ellipse 36" cx="1" cy="1" r="1" transform="translate(1447 453)" fill="#caedff"/>
    <circle id="Ellipse_37" data-name="Ellipse 37" cx="1" cy="1" r="1" transform="translate(1819 856)" fill="#caedff"/>
    <circle id="Ellipse_38" data-name="Ellipse 38" cx="1" cy="1" r="1" transform="translate(2027 615)" fill="#caedff"/>
    <circle id="Ellipse_39" data-name="Ellipse 39" cx="1" cy="1" r="1" transform="translate(1173 1073)" fill="#acb9c2"/>
    <circle id="Ellipse_40" data-name="Ellipse 40" cx="1" cy="1" r="1" transform="translate(1216 1147)" fill="#acb9c2"/>
    <circle id="Ellipse_41" data-name="Ellipse 41" cx="1" cy="1" r="1" transform="translate(1413 1087)" fill="#9bdaf3"/>
    <circle id="Ellipse_42" data-name="Ellipse 42" cx="1" cy="1" r="1" transform="translate(1726 975)" fill="#9bdaf3"/>
    <circle id="Ellipse_43" data-name="Ellipse 43" cx="1" cy="1" r="1" transform="translate(1692 831)" fill="#9bdaf3"/>
    <circle id="Ellipse_44" data-name="Ellipse 44" cx="1" cy="1" r="1" transform="translate(1835 760)" fill="#caedff"/>
    <circle id="Ellipse_45" data-name="Ellipse 45" cx="1" cy="1" r="1" transform="translate(1837 664)" fill="#9bdaf3"/>
    <circle id="Ellipse_46" data-name="Ellipse 46" cx="1" cy="1" r="1" transform="translate(2112 771)" fill="#9bdaf3"/>
    <circle id="Ellipse_47" data-name="Ellipse 47" cx="1" cy="1" r="1" transform="translate(2139 496)" fill="#9bdaf3"/>
    <circle id="Ellipse_48" data-name="Ellipse 48" cx="1" cy="1" r="1" transform="translate(1879 464)" fill="#caedff"/>
    <path id="Path_26" data-name="Path 26" d="M2230,151h-3v-3h-2v3h-3v2h3v3h2v-3h3Z" fill="#9bdaf3"/>
    <path id="Path_27" data-name="Path 27" d="M2100,269h-3v-3h-2v3h-3v2h3v3h2v-3h3Z" fill="#caedff"/>
    <path id="Path_28" data-name="Path 28" d="M2316,259h-3v-3h-2v3h-3v2h3v3h2v-3h3Z" fill="#caedff"/>
    <path id="Path_29" data-name="Path 29" d="M2462,124h-3v-3h-2v3h-3v2h3v3h2v-3h3Z" fill="#caedff"/>
    <circle id="Ellipse_49" data-name="Ellipse 49" cx="2" cy="2" r="2" transform="translate(2166 350)" fill="#caedff"/>
    <circle id="Ellipse_50" data-name="Ellipse 50" cx="2" cy="2" r="2" transform="translate(2400 178)" fill="#9bdaf3"/>
    <circle id="Ellipse_51" data-name="Ellipse 51" cx="1" cy="1" r="1" transform="translate(2444 338)" fill="#34b3e4"/>
    <circle id="Ellipse_52" data-name="Ellipse 52" cx="1" cy="1" r="1" transform="translate(2210 109)" fill="#caedff"/>
    <circle id="Ellipse_53" data-name="Ellipse 53" cx="1" cy="1" r="1" transform="translate(2145 187)" fill="#caedff"/>
    <circle id="Ellipse_54" data-name="Ellipse 54" cx="1" cy="1" r="1" transform="translate(2522 271)" fill="#caedff"/>
    <circle id="Ellipse_55" data-name="Ellipse 55" cx="1" cy="1" r="1" transform="translate(2332 320)" fill="#9bdaf3"/>
    <circle id="Ellipse_56" data-name="Ellipse 56" cx="1" cy="1" r="1" transform="translate(2374 120)" fill="#caedff"/>
    <circle id="Ellipse_57" data-name="Ellipse 57" cx="1" cy="1" r="1" transform="translate(1900 1132)" fill="#34b3e4"/>
    <circle id="Ellipse_58" data-name="Ellipse 58" cx="1" cy="1" r="1" transform="translate(1625 1171)" fill="#34b3e4"/>
    <circle id="Ellipse_59" data-name="Ellipse 59" cx="1" cy="1" r="1" transform="translate(1870 1076)" fill="#caedff"/>
    <circle id="Ellipse_60" data-name="Ellipse 60" cx="1" cy="1" r="1" transform="translate(861 1076)" fill="#caedff"/>
    <circle id="Ellipse_61" data-name="Ellipse 61" cx="1" cy="1" r="1" transform="translate(1058 1184)" fill="#caedff"/>
    <circle id="Ellipse_62" data-name="Ellipse 62" cx="1" cy="1" r="1" transform="translate(643 907)" fill="#caedff"/>
    <circle id="Ellipse_63" data-name="Ellipse 63" cx="1" cy="1" r="1" transform="translate(415 832)" fill="#caedff"/>
    <path id="Path_30" data-name="Path 30" d="M1756,281h-3v-3h-2v3h-3v2h3v3h2v-3h3Z" fill="#caedff"/>
    <path id="Path_31" data-name="Path 31" d="M1893,355h-3v-3h-2v3h-3v2h3v3h2v-3h3Z" fill="#9bdaf3"/>
    <path id="Path_32" data-name="Path 32" d="M362,195h-3v-3h-2v3h-3v2h3v3h2v-3h3Z" fill="#caedff"/>
    <path id="Path_33" data-name="Path 33" d="M680,180h-3v-3h-2v3h-3v2h3v3h2v-3h3Z" fill="#caedff"/>
    <path id="Path_34" data-name="Path 34" d="M454,282h-3v-3h-2v3h-3v2h3v3h2v-3h3Z" fill="#34b3e4"/>
    <path id="Path_35" data-name="Path 35" d="M869,204h-3v-3h-2v3h-3v2h3v3h2v-3h3Z" fill="#9bdaf3"/>
    <path id="Path_36" data-name="Path 36" d="M739,322h-3v-3h-2v3h-3v2h3v3h2v-3h3Zm532-43h-3v-3h-2v3h-3v2h3v3h2v-3h3ZM955,312h-3v-3h-2v3h-3v2h3v3h2v-3h3Zm146-135h-3v-3h-2v3h-3v2h3v3h2v-3h3Z" fill="#caedff"/>
    <circle id="Ellipse_64" data-name="Ellipse 64" cx="2" cy="2" r="2" transform="translate(1039 231)" fill="#9bdaf3"/>
    <circle id="Ellipse_65" data-name="Ellipse 65" cx="2" cy="2" r="2" transform="translate(483 167)" fill="#9bdaf3"/>
    <circle id="Ellipse_66" data-name="Ellipse 66" cx="1" cy="1" r="1" transform="translate(849 162)" fill="#caedff"/>
    <circle id="Ellipse_67" data-name="Ellipse 67" cx="1" cy="1" r="1" transform="translate(784 240)" fill="#caedff"/>
    <circle id="Ellipse_68" data-name="Ellipse 68" cx="1" cy="1" r="1" transform="translate(628 258)" fill="#caedff"/>
    <circle id="Ellipse_69" data-name="Ellipse 69" cx="1" cy="1" r="1" transform="translate(311 251)" fill="#9bdaf3"/>
    <circle id="Ellipse_70" data-name="Ellipse 70" cx="1" cy="1" r="1" transform="translate(581 162)" fill="#caedff"/>
    <path id="Path_37" data-name="Path 37" d="M102,108H99v-3H97v3H94v2h3v3h2v-3h3Z" fill="#caedff"/>
    <path id="Path_38" data-name="Path 38" d="M420,93h-3V90h-2v3h-3v2h3v3h2V95h3Z" fill="#caedff"/>
    <circle id="Ellipse_71" data-name="Ellipse 71" cx="2" cy="2" r="2" transform="translate(223 80)" fill="#9bdaf3"/>
    <circle id="Ellipse_72" data-name="Ellipse 72" cx="1" cy="1" r="1" transform="translate(321 75)" fill="#caedff"/>
    <circle id="Ellipse_73" data-name="Ellipse 73" cx="1" cy="1" r="1" transform="translate(1273 205)" fill="#9bdaf3"/>
    <circle id="Ellipse_74" data-name="Ellipse 74" cx="1" cy="1" r="1" transform="translate(1013 173)" fill="#caedff"/>
    <path id="Path_39" data-name="Path 39" d="M1027,64h-3V61h-2v3h-3v2h3v3h2V66h3Z" fill="#9bdaf3"/>
    <path id="Path_40" data-name="Path 40" d="M1649,200h-3v-3h-2v3h-3v2h3v3h2v-3h3Z" fill="#9bdaf3"/>
    <path id="Path_41" data-name="Path 41" d="M1889,150h-3v-3h-2v3h-3v2h3v3h2v-3h3Z" fill="#caedff"/>
    <circle id="Ellipse_75" data-name="Ellipse 75" cx="1" cy="1" r="1" transform="translate(1878 203)" fill="#caedff"/>
    <circle id="Ellipse_76" data-name="Ellipse 76" cx="1" cy="1" r="1" transform="translate(1736 166)" fill="#caedff"/>
    <circle id="Ellipse_77" data-name="Ellipse 77" cx="2" cy="2" r="2" transform="translate(1537 122)" fill="#caedff"/>
    <circle id="Ellipse_78" data-name="Ellipse 78" cx="2" cy="2" r="2" transform="translate(1825 274)" fill="#caedff"/>
    <circle id="Ellipse_79" data-name="Ellipse 79" cx="2" cy="2" r="2" transform="translate(1501 230)" fill="#caedff"/>
    <circle id="Ellipse_80" data-name="Ellipse 80" cx="2" cy="2" r="2" transform="translate(1963 232)" fill="#34b3e4"/>
    <path id="Path_42" data-name="Path 42" d="M359,802h-3v-3h-2v3h-3v2h3v3h2v-3h3Z" fill="#34b3e4"/>
    <path id="Path_43" data-name="Path 43" d="M317,676h-3v-3h-2v3h-3v2h3v3h2v-3h3ZM147,574h-3v-3h-2v3h-3v2h3v3h2v-3h3Z" fill="#caedff"/>
    <circle id="Ellipse_81" data-name="Ellipse 81" cx="2" cy="2" r="2" transform="translate(85 628)" fill="#9bdaf3"/>
    <circle id="Ellipse_82" data-name="Ellipse 82" cx="1" cy="1" r="1" transform="translate(129 788)" fill="#34b3e4"/>
    <circle id="Ellipse_83" data-name="Ellipse 83" cx="1" cy="1" r="1" transform="translate(207 721)" fill="#caedff"/>
    <circle id="Ellipse_84" data-name="Ellipse 84" cx="1" cy="1" r="1" transform="translate(17 770)" fill="#9bdaf3"/>
    <circle id="Ellipse_85" data-name="Ellipse 85" cx="1" cy="1" r="1" transform="translate(319 602)" fill="#9bdaf3"/>
    <circle id="Ellipse_86" data-name="Ellipse 86" cx="1" cy="1" r="1" transform="translate(59 570)" fill="#caedff"/>
    <path id="Path_44" data-name="Path 44" d="M280,375h-3v-3h-2v3h-3v2h3v3h2v-3h3Z" fill="#caedff"/>
    <circle id="Ellipse_87" data-name="Ellipse 87" cx="2" cy="2" r="2" transform="translate(346 456)" fill="#caedff"/>
    <circle id="Ellipse_88" data-name="Ellipse 88" cx="1" cy="1" r="1" transform="translate(325 293)" fill="#caedff"/>
    <path id="Path_45" data-name="Path 45" d="M73,461H70v-3H68v3H65v2h3v3h2v-3h3Z" fill="#9bdaf3"/>
    <path id="Path_46" data-name="Path 46" d="M69,256H66v-3H64v3H61v2h3v3h2v-3h3Z" fill="#caedff"/>
    <circle id="Ellipse_89" data-name="Ellipse 89" cx="1" cy="1" r="1" transform="translate(58 309)" fill="#caedff"/>
    <circle id="Ellipse_90" data-name="Ellipse 90" cx="2" cy="2" r="2" transform="translate(143 338)" fill="#34b3e4"/>
    <path id="Path_47" data-name="Path 47" d="M2278,837h-3v-3h-2v3h-3v2h3v3h2v-3h3Z" fill="#9bdaf3"/>
    <path id="Path_48" data-name="Path 48" d="M2510,810h-3v-3h-2v3h-3v2h3v3h2v-3h3Z" fill="#caedff"/>
    <circle id="Ellipse_91" data-name="Ellipse 91" cx="2" cy="2" r="2" transform="translate(2448 864)" fill="#9bdaf3"/>
    <circle id="Ellipse_92" data-name="Ellipse 92" cx="1" cy="1" r="1" transform="translate(2258 795)" fill="#caedff"/>
    <circle id="Ellipse_93" data-name="Ellipse 93" cx="1" cy="1" r="1" transform="translate(2422 806)" fill="#caedff"/>
    <path id="Path_49" data-name="Path 49" d="M2299,623h-3v-3h-2v3h-3v2h3v3h2v-3h3Z" fill="#caedff"/>
    <path id="Path_50" data-name="Path 50" d="M2436,697h-3v-3h-2v3h-3v2h3v3h2v-3h3Z" fill="#9bdaf3"/>
    <circle id="Ellipse_94" data-name="Ellipse 94" cx="1" cy="1" r="1" transform="translate(2421 545)" fill="#caedff"/>
    <circle id="Ellipse_95" data-name="Ellipse 95" cx="2" cy="2" r="2" transform="translate(2368 616)" fill="#caedff"/>
    <circle id="Ellipse_96" data-name="Ellipse 96" cx="2" cy="2" r="2" transform="translate(2506 574)" fill="#34b3e4"/>
    <circle id="Ellipse_97" data-name="Ellipse 97" cx="1" cy="1" r="1" transform="translate(1637 91)" fill="#34b3e4"/>
    <circle id="Ellipse_98" data-name="Ellipse 98" cx="1" cy="1" r="1" transform="translate(1522 316)" fill="#caedff"/>
    <circle id="Ellipse_99" data-name="Ellipse 99" cx="1" cy="1" r="1" transform="translate(534 1027)" fill="#caedff"/>
    <circle id="Ellipse_100" data-name="Ellipse 100" cx="1" cy="1" r="1" transform="translate(669 1039)" fill="#9bdaf3"/>
    <circle id="Ellipse_101" data-name="Ellipse 101" cx="1" cy="1" r="1" transform="translate(817 1178)" fill="#9bdaf3"/>
    <circle id="Ellipse_102" data-name="Ellipse 102" cx="1" cy="1" r="1" transform="translate(967 887)" fill="#caedff"/>
    <g id="Group_4" data-name="Group 4" style="isolation: isolate">
      <path id="Path_51" data-name="Path 51" d="M2712.226,941.4l-114.795,77.315-61.7-46.763L2210,1221.356l17.219,71.7,485.007,55.711Z" transform="translate(-43.346 -40.65)" fill="#e6f7ff"/>
      <path id="Path_52" data-name="Path 52" d="M298.95,1032.5C249.9,996.789,103.995,828.09,84.377,801L1,866.522V1318.7l256.261,101.687L489,1243.064S347.995,1068.208,298.95,1032.5Z" transform="translate(-90)" fill="#e6f7ff" style="mix-blend-mode: multiply;isolation: isolate"/>
      <path id="Path_53" data-name="Path 53" d="M84.377,801,1,866.522V1028.8l24.523-39.4,61.307,126.832,53.95-113.286,49.045,65.263,83.6-57.628C211.711,952.545,101.261,824.322,84.377,801Z" transform="translate(-90)" fill="#e6f7ff" opacity="0.45" style="mix-blend-mode: screen;isolation: isolate"/>
      <path id="Path_54" data-name="Path 54" d="M320,1294V1172s198-33.67,354,40,464.22,59,518,52,301.34-74.39,539-60c247.67,15,323.67,33.67,509-12.33V1294S321.33,1295,320,1294Z" fill="#e6f7ff" style="mix-blend-mode: multiply;isolation: isolate"/>
      <path id="Path_55" data-name="Path 55" d="M320,1294H3077.88v146H320Z" transform="translate(-409)" fill="#caedff"/>
      <path id="Path_56" data-name="Path 56" d="M794.5,1129,732,1401.73H857Zm1092,4.27L1824,1406h125Zm276.73-191L2056.96,1406H2269.5Zm304.54,60L2357,1406h221.54Z" fill="#9bdaf3"/>
      <path id="Path_57" data-name="Path 57" d="M2278.77,1002.27,2168,1406h221.54Zm-1785.56,25L406.42,1406H580Zm-199-78L207.42,1406H381Z" fill="#9bdaf3"/>
      <path id="Path_58" data-name="Path 58" d="M142.79,1024,56,1406H229.58l-86.79-382Z" fill="#9bdaf3"/>
      <path id="Path_59" data-name="Path 59" d="M81.79,951-5,1406H168.58ZM1712.5,1185,1672,1361.73h81Z" fill="#9bdaf3"/>
      <path id="Path_60" data-name="Path 60" d="M1605,1206l-22,96h44Z" fill="#caedff"/>
      <path id="Path_61" data-name="Path 61" d="M1574,1227l-22,96h44Zm-125,23-22,96h44Zm-435-43-22,96h44Z" fill="#caedff"/>
      <path id="Path_62" data-name="Path 62" d="M989,1235l-22,96h44Zm-71-12-22,96h44Z" fill="#caedff"/>
      <path id="Path_63" data-name="Path 63" d="M660.5,1184l-33.62,146.73h67.25Z" fill="#9bdaf3"/>
      <path id="Path_64" data-name="Path 64" d="M1789.21,974l-106.79,466H1896Z" fill="#65c3e8"/>
      <path id="Path_65" data-name="Path 65" d="M1969.38,906,1847,1440h244.75Z" fill="#65c3e8"/>
      <path id="Path_66" data-name="Path 66" d="M2087.44,833l-139.11,607h278.21Z" fill="#65c3e8"/>
      <path id="Path_67" data-name="Path 67" d="M2375.6,847,2207,1440h337.21Z" fill="#65c3e8"/>
      <path id="Path_68" data-name="Path 68" d="M2237.58,873l-129.94,567h259.87Zm301.36,0L2409,1440h259.88ZM584.79,995.82,483,1440H686.58Z" fill="#65c3e8"/>
      <path id="Path_69" data-name="Path 69" d="M444.42,893.82,319.25,1440H569.58Z" fill="#65c3e8"/>
      <path id="Path_70" data-name="Path 70" d="M344.17,909.54,222.61,1440H465.73Z" fill="#65c3e8"/>
      <path id="Path_71" data-name="Path 71" d="M222.44,822.54,88.88,1440H356Z" fill="#65c3e8"/>
      <path id="Path_72" data-name="Path 72" d="M44.56,898-89,1440H178.13ZM718.5,1066.91,633,1440H804Z" fill="#65c3e8"/>
      <path id="Path_93" data-name="Path 93" d="M995.25,1359l1.62-7.3,10.25-4.66,9.12,1.83,1.91,5.74L1024,1359Z" fill="#e1e9ee"/>
      <path id="Path_94" data-name="Path 94" d="M1007.24,1348.09l8.23,1.65,1.63,4.9.2.59.5.38,3.2,2.4H996.49l1.24-5.59,9.5-4.32m-.23-2.1-11,5-2,9h33l-8-6-2-6Z" fill="#acb9c2"/>
      <path id="Path_95" data-name="Path 95" d="M966.28,1352l.62-2.49,3.46-3.46,7.02.88,2.9,5.07h-14Z" fill="#e1e9ee"/>
      <path id="Path_96" data-name="Path 96" d="M970.72,1347.11l6,.75,1.79,3.14h-11l.24-1,2.92-2.92M970,1345l-4,4-1,4h17l-4-7Z" fill="#acb9c2"/>
      <path id="Path_100" data-name="Path 100" d="M991,1358h38v2H991Z" fill="#9bdaf3"/>
      <path id="Path_102" data-name="Path 102" d="M1522.26,1357l2.63-11.43,8.58-6.67,15.49-4.84,17.32,6.73,8.1,16.21h-52.12Z" fill="#e1e9ee"/>
      <path id="Path_103" data-name="Path 103" d="M1548.93,1335.12l16.63,6.47,7.21,14.42h-49.25l2.27-9.86,8.15-6.34,15-4.68m.06-2.13-16,5-9,7-3,13h55l-9-18Z" fill="#acb9c2"/>
      <path id="Path_104" data-name="Path 104" d="M1516,1356h66v2h-66Zm-553-5h20v2H963Z" fill="#9bdaf3"/>
    </g>
  </g>
</svg>
